<svg width="32" height="33" viewBox="0 0 32 33" fill="none" xmlns="http://www.w3.org/2000/svg">
<path d="M16.0323 30.7609C22.9536 30.7609 28.5645 25.15 28.5645 18.2287C28.5645 11.3073 22.9536 5.69641 16.0323 5.69641C9.11088 5.69641 3.5 11.3073 3.5 18.2287C3.5 25.15 9.11088 30.7609 16.0323 30.7609Z" stroke="#351791" stroke-width="2" stroke-miterlimit="10" stroke-linecap="round" stroke-linejoin="round"/>
<path d="M16.0352 5.69635V2.76086" stroke="#351791" stroke-width="2" stroke-miterlimit="10" stroke-linejoin="round"/>
<path d="M27.0428 8.63263C27.4174 8.22681 27.3921 7.59415 26.9862 7.21954C26.5804 6.84494 25.9478 6.87024 25.5732 7.27607L27.0428 8.63263ZM25.6879 10.1004L27.0428 8.63263L25.5732 7.27607L24.2183 8.74381L25.6879 10.1004Z" fill="#351791"/>
<path d="M13.4375 2.76086H18.631" stroke="#351791" stroke-width="2" stroke-miterlimit="10" stroke-linecap="round" stroke-linejoin="round"/>
<path d="M16 11.2009V18.2009L11.0125 13.2134C9.7875 14.5259 9 16.2759 9 18.2009C9 22.0509 12.15 25.2009 16 25.2009C19.85 25.2009 23 22.0509 23 18.2009C23 14.3509 19.85 11.2009 16 11.2009Z" fill="#FB6B4B"/>
</svg>
