<svg width="32" height="33" viewBox="0 0 32 33" fill="none" xmlns="http://www.w3.org/2000/svg">
<path d="M16 29.2108C22.9 29.2108 28.5 23.6108 28.5 16.7108C28.5 9.81082 22.9 4.21082 16 4.21082C9.1 4.21082 3.5 9.81082 3.5 16.7108C3.5 23.6108 9.1 29.2108 16 29.2108Z" stroke="#351791" stroke-width="2" stroke-miterlimit="10" stroke-linecap="round" stroke-linejoin="round"/>
<path d="M12.2619 14.6756H14.4019C14.4019 13.2756 15.3019 12.4756 16.7219 12.4756C18.1619 12.4756 19.0219 13.3356 19.0219 14.7356C19.0219 16.8356 17.2819 17.2356 15.0219 17.2356H14.3619L14.4619 20.3756H16.4419L16.5219 18.7956C19.2019 18.7956 21.2019 17.5556 21.2019 14.7356C21.2019 12.1356 19.3819 10.5556 16.7019 10.5556C13.9819 10.5556 12.2419 12.2556 12.2619 14.6756ZM16.8619 23.3356C16.8619 22.5156 16.2219 21.8756 15.4219 21.8756C14.6019 21.8756 13.9619 22.5156 13.9619 23.3356C13.9619 24.1556 14.6019 24.7956 15.4219 24.7956C16.2219 24.7956 16.8619 24.1556 16.8619 23.3356Z" fill="#351791"/>
</svg>
