<svg width="517" height="468" viewBox="0 0 517 468" fill="none" xmlns="http://www.w3.org/2000/svg">
<g clip-path="url(#clip0_217_858)">
<g opacity="0.19">
<path opacity="0.19" d="M237.62 380.74C110.29 390.17 1.87 392.54 0.0199981 413.06C-1.76 433.2 100.4 453.81 143.02 460.23C207.15 469.89 251.49 464.7 257.64 447.84C259.45 442.84 257.32 438.56 260.99 433.76C269.84 422.16 296.46 428.81 311.99 432.1C311.99 432.1 361.69 442.65 414.05 440.39C465.45 438.2 518.45 408.74 516.13 394C512.13 368.38 338.39 373.31 237.62 380.74Z" fill="#4F52FE"/>
</g>
<g opacity="0.19">
<path opacity="0.19" d="M215.37 382.31C205.37 384.4 166.99 392.44 166.92 399.94C166.85 406.75 198.56 409.86 210.14 411.01C246.86 414.63 267.84 411.25 312.61 407.49C357.89 403.65 382.12 403.3 432.61 396.33C467.38 391.54 471.1 389.62 471.15 388.21C471.3 382.9 418.57 379.85 347.87 375.74C304.5 373.25 265.63 371.81 215.37 382.31Z" fill="#4F52FE"/>
</g>
<path d="M216.75 358.38L400.47 162.38L383.08 157.16C382.368 156.969 381.725 156.577 381.23 156.03C380.731 155.468 380.405 154.773 380.29 154.03C380.168 153.299 380.262 152.548 380.56 151.87C380.849 151.189 381.333 150.608 381.95 150.2L504.33 70.07C509.63 66.6 516.49 71.8701 514.33 77.7601L476.75 180.79C476.201 182.203 475.375 183.492 474.32 184.58C473.27 185.664 472.011 186.521 470.618 187.101C469.225 187.68 467.728 187.969 466.22 187.95C464.707 187.922 463.216 187.581 461.84 186.95L450.13 181.95L261.38 397.46C259.591 399.411 257.286 400.814 254.732 401.508C252.178 402.202 249.48 402.157 246.95 401.38L217.75 392.62L216.75 358.38Z" fill="#FB6B4B"/>
<path d="M94.46 264.17L193.22 385.55C198.22 392.95 203.84 399.31 212.93 400.31L245.41 403.9C247.463 404.167 249.551 403.898 251.47 403.12C253.392 402.344 255.085 401.091 256.39 399.48L257.75 397.7C256.084 397.551 254.488 396.957 253.13 395.98C251.761 395.007 250.675 393.689 249.98 392.16L145.1 250.27C142.229 246.838 138.304 244.452 133.936 243.484C129.567 242.516 125.001 243.021 120.95 244.92L95.57 259.39C95.1346 259.581 94.7507 259.872 94.45 260.24C94.1517 260.608 93.9399 261.039 93.83 261.5C93.7208 261.963 93.7209 262.446 93.8302 262.909C93.9395 263.373 94.1552 263.804 94.46 264.17Z" fill="url(#paint0_linear_217_858)"/>
<path d="M402.43 144.93C402.228 144.863 402.053 144.733 401.93 144.56C401.856 144.458 401.801 144.342 401.77 144.22C401.74 144.099 401.74 143.972 401.77 143.85C401.786 143.725 401.83 143.605 401.9 143.5C401.973 143.397 402.064 143.309 402.17 143.24L505.49 73.5601C506.096 73.1714 506.809 72.9843 507.527 73.0256C508.246 73.067 508.933 73.3345 509.49 73.7901C510.054 74.237 510.452 74.86 510.621 75.5597C510.789 76.2593 510.719 76.9953 510.42 77.6501L505.42 88.3701C505.306 88.5974 505.109 88.7727 504.87 88.8601C504.632 88.9547 504.368 88.9547 504.13 88.8601C504.014 88.8072 503.908 88.7325 503.82 88.6401C503.73 88.554 503.661 88.4477 503.62 88.3301C503.572 88.2127 503.548 88.0869 503.55 87.9601C503.556 87.8332 503.583 87.7082 503.63 87.5901L508.63 76.9201C508.779 76.6377 508.822 76.3112 508.75 76.0001C508.68 75.7083 508.51 75.4502 508.27 75.2701C508.043 75.0768 507.758 74.9643 507.46 74.9501C507.164 74.9311 506.869 75.0083 506.62 75.1701L403.31 144.86C403.179 144.939 403.032 144.987 402.88 145C402.727 145.012 402.573 144.988 402.43 144.93Z" fill="url(#paint1_linear_217_858)"/>
<path d="M102.04 111.21L94.67 113.7C94.67 113.7 83.67 105.07 83.82 103.16C83.97 101.25 91.55 88.89 95.13 92.39C98.71 95.89 101.84 104.2 101.84 104.2L102.04 111.21Z" fill="url(#paint2_linear_217_858)"/>
<path d="M161.51 95.0499C161.51 95.0499 153.16 93.6099 147.89 108.05C142.62 122.49 128.89 146.78 125.41 144.86C121.93 142.94 102.34 110.43 102.34 110.43L94.53 113.15C94.53 113.15 109.87 177.23 134.47 163.15C159.07 149.07 165.83 109.8 165.83 109.8L161.51 95.0499Z" fill="url(#paint3_linear_217_858)"/>
<path d="M95.26 92L83.75 108.52L83.26 109.22L79.72 114.32C79.5878 114.513 79.5276 114.747 79.55 114.98C79.5811 115.215 79.6944 115.431 79.87 115.59L81.19 116.77C81.3639 116.932 81.5926 117.022 81.83 117.022C82.0674 117.022 82.2961 116.932 82.47 116.77L87.14 112.68L87.79 112.11L102.91 98.86C103.047 98.7435 103.169 98.609 103.27 98.46C103.579 98.0135 103.711 97.4682 103.64 96.93V96.67L100.31 94.09L97.36 91.09H97.1C96.559 91.0864 96.0357 91.2822 95.63 91.64C95.49 91.7416 95.3654 91.8629 95.26 92Z" fill="#351791"/>
<path d="M95.63 91.6C97.3082 94.7136 100.021 97.1435 103.3 98.47C103.607 98.0225 103.742 97.4791 103.68 96.94V96.68L100.34 94.1L97.34 91.1H97.08C96.5526 91.0891 96.0386 91.2663 95.63 91.6Z" fill="#4F52FE"/>
<path d="M105.37 96.3601C106.872 96.362 108.34 95.9186 109.589 95.0858C110.839 94.253 111.813 93.0683 112.389 91.6816C112.965 90.2948 113.117 88.7684 112.825 87.2955C112.534 85.8225 111.812 84.4691 110.75 83.4067C109.689 82.3442 108.337 81.6203 106.864 81.3266C105.392 81.033 103.865 81.1827 102.478 81.7569C101.09 82.331 99.9043 83.3039 99.0698 84.5522C98.2354 85.8006 97.79 87.2685 97.79 88.77C97.79 90.7813 98.5883 92.7103 100.01 94.1335C101.431 95.5566 103.359 96.3574 105.37 96.3601Z" fill="#4F52FE"/>
<path d="M99.33 82.8C99.1903 83.0125 99.1301 83.2675 99.16 83.52C99.187 83.777 99.3124 84.0135 99.51 84.18C103.069 87.719 106.821 91.0574 110.75 94.18C110.943 94.3475 111.19 94.4397 111.445 94.4397C111.7 94.4397 111.947 94.3475 112.14 94.18C112.287 93.9669 112.351 93.7072 112.32 93.45C112.28 93.1979 112.152 92.9678 111.96 92.8C108.399 89.2558 104.64 85.9171 100.7 82.8C100.507 82.6277 100.258 82.5317 100 82.53C99.7422 82.5352 99.4945 82.6308 99.3 82.8H99.33Z" fill="#91B3FA"/>
<path d="M97.38 88.5599C97.4606 88.5594 97.5399 88.5801 97.61 88.62C97.68 88.657 97.7388 88.7123 97.78 88.7799C99.814 92.0113 102.752 94.574 106.23 96.1499C106.303 96.1864 106.365 96.2416 106.41 96.3099C106.46 96.3764 106.488 96.4568 106.49 96.5399C106.5 96.6169 106.482 96.6948 106.44 96.7599C106.4 96.8297 106.336 96.8829 106.26 96.91L104.99 97.4199C104.773 97.4994 104.541 97.5301 104.31 97.5099C104.082 97.4894 103.86 97.4213 103.66 97.3099C102.08 96.4199 98.22 94.0299 96.66 91.0399C96.5675 90.8519 96.5099 90.6486 96.49 90.44C96.4799 90.2294 96.5104 90.0189 96.58 89.8199C96.7 89.4899 96.88 89.1099 97.02 88.8199C97.0502 88.755 97.0981 88.6998 97.1582 88.6609C97.2184 88.622 97.2884 88.6008 97.36 88.5999L97.38 88.5599Z" fill="#91B3FA"/>
<path d="M92.49 101.68C92.3648 101.816 92.2835 101.987 92.2567 102.17C92.23 102.353 92.259 102.539 92.3399 102.706C92.4209 102.872 92.5501 103.01 92.7106 103.102C92.8712 103.193 93.0557 103.235 93.24 103.22C93.362 103.214 93.4816 103.183 93.5915 103.13C93.7015 103.077 93.7996 103.002 93.88 102.91L96.12 100.41C96.2758 100.222 96.3577 99.9839 96.35 99.74C96.3397 99.4922 96.2318 99.2586 96.05 99.09C95.8596 98.9318 95.6173 98.8498 95.37 98.86C95.1259 98.8814 94.8981 98.9917 94.73 99.17L92.49 101.68Z" fill="#4F52FE"/>
<path d="M83.75 108.52L83.26 109.23C84.402 110.524 85.6869 111.685 87.09 112.69L87.75 112.12C86.2662 111.099 84.9216 109.888 83.75 108.52Z" fill="#4F52FE"/>
<path d="M111.04 86C111.066 86.01 111.094 86.01 111.12 86C111.143 86.0084 111.167 86.0084 111.19 86C111.19 86 111.25 86 111.27 85.92C111.28 85.8874 111.28 85.8526 111.27 85.82C111.073 85.3092 110.818 84.8226 110.51 84.37H110.4C110.391 84.4027 110.391 84.4373 110.4 84.47C110.391 84.4993 110.391 84.5307 110.4 84.56C110.688 85.0017 110.933 85.4706 111.13 85.96C111.13 85.96 111.03 85.94 111.04 86Z" fill="#91B3FA"/>
<path d="M88.4 110.16C88.4 110.16 88.55 110.16 88.59 110.09L101.26 99.0899C101.27 99.0642 101.27 99.0357 101.26 99.0099C101.268 98.9872 101.268 98.9627 101.26 98.9399H101.19L88.45 110C88.45 110 88.34 110.16 88.37 110.2L88.4 110.16Z" fill="#91B3FA"/>
<path d="M102.34 110.4C102.34 110.4 101.34 105.48 101.8 104.22C102.26 102.96 96.49 98.5999 91.74 98.2199C86.99 97.8399 90.01 100.22 92.44 101.76C94.87 103.3 93.97 107.2 95.1 108.71C96.23 110.22 102.49 111.27 102.34 110.4Z" fill="url(#paint4_linear_217_858)"/>
<path d="M94.47 92C95.26 91.83 97.74 99.07 95.94 100.55C94.14 102.03 92.94 105.03 92.21 105.71C91.48 106.39 88.74 106.71 85.65 105.88C80.57 104.45 85.87 93.78 94.47 92Z" fill="url(#paint5_linear_217_858)"/>
<path d="M301.65 115.27C301.65 115.27 298.02 122.94 300.13 125.82C302.24 128.7 303.64 139.56 306.45 137.04C309.26 134.52 307.5 128.23 307.5 128.23C307.5 128.23 319.29 119.42 321.39 123.72C323.49 128.02 326.39 129.11 327.48 128.27C327.48 128.27 324.67 123.27 323.48 120.89C328.28 120.83 334.73 121.51 335.95 120.18C337.17 118.85 329.15 113.6 311.07 110.82L301.65 115.27Z" fill="#FB6B4B"/>
<path d="M277.47 73.47C274.818 70.6282 271.434 68.5728 267.69 67.53L235.09 58L227.16 76.31C227.16 76.31 255.69 81.59 263.02 83.16C270.35 84.73 301.1 116.48 301.1 116.48L311.1 110.8L277.47 73.47Z" fill="#FEB3B1"/>
<path d="M190.12 54.75C190.12 54.75 210.41 43.86 244.86 57.62C243.6 78.72 242.03 81.96 242.03 81.96C242.03 81.96 188.5 79.77 190.12 54.75Z" fill="#FB6B4B"/>
<path d="M162.48 80.86C162.48 80.86 142.87 101.86 136.59 127.65C156.19 135.57 162.3 136.83 162.3 136.83C162.3 136.83 185.75 90.17 162.48 80.86Z" fill="#FB6B4B"/>
<path d="M191.07 54.11C177.73 62.6 163.13 80.25 163.13 80.25C163.13 80.25 144.37 95.25 161.88 111.14C179.62 127.19 228.6 180.02 237.49 190.14C238.49 191.24 250.69 187.42 290.07 132.32C290.8 131.31 203.37 46.3 191.07 54.11Z" fill="#FB6B4B"/>
<path d="M90.55 50.47C90.6256 51.2272 90.4678 51.9894 90.0978 52.6543C89.7278 53.3192 89.1633 53.8551 88.48 54.19C87.794 54.522 87.0231 54.6371 86.27 54.52C85.5149 54.4047 84.8152 54.0549 84.27 53.52C83.7049 52.9849 83.3233 52.2849 83.18 51.52C83.0647 50.9621 83.0788 50.3852 83.2211 49.8336C83.3634 49.282 83.6301 48.7703 84.0008 48.3378C84.3716 47.9053 84.8364 47.5634 85.3598 47.3385C85.8831 47.1135 86.4511 47.0114 87.02 47.04C87.9319 47.0238 88.8135 47.3672 89.4741 47.996C90.1347 48.6248 90.5212 49.4884 90.55 50.4V50.47Z" fill="#FB6B4B"/>
<path d="M94.17 32.33C92.09 30.87 92.02 29.41 90.41 29.07C88.8 28.73 89.04 31.63 89.04 31.63L88.15 49.63C88.1482 49.9497 88.27 50.2579 88.49 50.49C88.7109 50.7211 89.0109 50.8603 89.33 50.88C89.99 50.88 90.49 51.11 90.53 50.46L91.43 33.35C95.85 34.35 97.91 40.01 97.91 40.01C98.46 36.94 96.02 33.64 94.17 32.33Z" fill="#FB6B4B"/>
<path d="M27.75 84.35C27.6006 84.291 27.4646 84.2026 27.35 84.09C27.2365 83.9741 27.1451 83.8386 27.08 83.69C26.9598 83.3882 26.9598 83.0518 27.08 82.75L34.08 65.05C34.1376 64.8969 34.2261 64.7573 34.34 64.64C34.45 64.5216 34.5826 64.4263 34.73 64.36C34.8799 64.2987 35.0385 64.2616 35.2 64.25C35.361 64.2499 35.5205 64.2805 35.67 64.34C35.8212 64.4014 35.96 64.4894 36.08 64.6C36.1904 64.7163 36.2785 64.8519 36.34 65C36.4044 65.1481 36.4352 65.3086 36.43 65.47C36.4311 65.6343 36.4005 65.7973 36.34 65.95L29.12 84.27C28.84 84.92 28.39 84.6 27.75 84.35Z" fill="#4F52FE"/>
<path d="M29.32 84.4201C28.64 86.1301 26.45 86.8801 24.39 86.0801C22.33 85.2801 21.22 83.2001 21.9 81.4901C22.58 79.7801 24.78 79.0401 26.84 79.8401C28.9 80.6401 30.01 82.7101 29.32 84.4201Z" fill="#4F52FE"/>
<path d="M45.01 88.4599C44.8606 88.4009 44.7246 88.3125 44.61 88.1999C44.4934 88.0866 44.4015 87.9505 44.34 87.8C44.2668 87.6434 44.2288 87.4727 44.2288 87.3C44.2288 87.1272 44.2668 86.9565 44.34 86.8L51.34 69.12C51.3978 68.9692 51.4825 68.8303 51.59 68.7099C51.7029 68.5904 51.839 68.4951 51.99 68.4299C52.1368 68.3596 52.2972 68.322 52.46 68.3199C52.6207 68.3116 52.7811 68.3389 52.93 68.3999C53.0794 68.459 53.2154 68.5474 53.33 68.66C53.4466 68.7733 53.5385 68.9094 53.6 69.0599C53.6595 69.2095 53.6901 69.369 53.69 69.5299C53.6917 69.6921 53.6576 69.8526 53.59 69.9999L46.38 88.3399C46.1 88.9999 45.65 88.7099 45.01 88.4599Z" fill="#4F52FE"/>
<path d="M46.25 88.41C45.57 90.12 43.37 90.86 41.31 90.06C39.25 89.26 38.15 87.18 38.83 85.48C39.51 83.78 41.75 83 43.75 83.82C45.75 84.64 46.92 86.68 46.25 88.41Z" fill="#4F52FE"/>
<path d="M33.08 70.82L52.08 73.93L53.87 69.38C53.9282 69.2028 53.952 69.0161 53.94 68.83C53.9186 68.647 53.8608 68.4702 53.77 68.31C53.6904 68.1562 53.5772 68.0224 53.4386 67.9185C53.3001 67.8146 53.1399 67.7433 52.97 67.71L35.71 64.34L33.08 70.82Z" fill="#4F52FE"/>
<path d="M65.55 15.44C65.3641 15.4555 65.1791 15.4022 65.03 15.29C64.8867 15.1707 64.7909 15.0039 64.76 14.82L63.31 4.00004C63.285 3.90499 63.285 3.80509 63.31 3.71004C63.33 3.61412 63.3673 3.52264 63.42 3.44003C63.4756 3.36019 63.5468 3.29245 63.6293 3.24089C63.7118 3.18933 63.8039 3.15502 63.9 3.14004C63.9961 3.12487 64.0939 3.12487 64.19 3.14004C64.2831 3.16654 64.3687 3.21449 64.44 3.28003C64.5164 3.34098 64.5808 3.41558 64.63 3.50004C64.6668 3.58949 64.6903 3.68381 64.7 3.78003L66.18 15C66.25 15.37 65.94 15.37 65.55 15.44Z" fill="url(#paint6_linear_217_858)"/>
<path d="M66.36 14.9999C66.4997 15.4561 66.4997 15.9437 66.36 16.3999C66.2209 16.8552 65.9451 17.2567 65.57 17.5499C65.1958 17.8471 64.7373 18.0186 64.26 18.0399C63.9036 18.0589 63.5476 17.9953 63.2197 17.8542C62.8919 17.7131 62.601 17.4982 62.3697 17.2263C62.1385 16.9544 61.9731 16.6328 61.8864 16.2866C61.7997 15.9403 61.7941 15.5787 61.87 15.2299C61.97 14.7652 62.211 14.3427 62.56 14.0199C62.9137 13.6972 63.3561 13.4882 63.83 13.4199C64.373 13.3004 64.9412 13.4011 65.41 13.6999C65.8838 13.9931 66.2246 14.4595 66.36 14.9999Z" fill="url(#paint7_linear_217_858)"/>
<path d="M75.34 12.63C75.2477 12.6497 75.1523 12.6497 75.06 12.63C74.9689 12.6088 74.8836 12.5678 74.81 12.51C74.7396 12.4496 74.679 12.3788 74.63 12.3C74.5795 12.2182 74.5486 12.1258 74.54 12.03L73.05 1.22001C73.0303 1.12434 73.0303 1.02567 73.05 0.930006C73.07 0.834093 73.1073 0.742611 73.16 0.660005C73.2172 0.581102 73.2884 0.513321 73.37 0.460005C73.4547 0.413821 73.5456 0.380141 73.64 0.360006C73.7361 0.344842 73.8339 0.344842 73.93 0.360006C74.0261 0.386437 74.115 0.434301 74.19 0.500006C74.2602 0.564394 74.3208 0.638475 74.37 0.720005C74.412 0.807657 74.4358 0.902904 74.44 1.00001L75.99 12.19C76.03 12.61 75.75 12.57 75.34 12.63Z" fill="url(#paint8_linear_217_858)"/>
<path d="M75.93 12.25C76.0748 12.7055 76.0748 13.1946 75.93 13.65C75.7879 14.1034 75.5106 14.5026 75.1353 14.7939C74.7599 15.0852 74.3045 15.2549 73.83 15.28C73.4744 15.2974 73.1195 15.2326 72.793 15.0908C72.4664 14.949 72.1768 14.7339 71.9467 14.4622C71.7166 14.1905 71.5521 13.8695 71.466 13.5241C71.3798 13.1786 71.3744 12.8179 71.45 12.47C71.5502 12.0077 71.7872 11.5861 72.13 11.26C72.481 10.9391 72.9197 10.7302 73.39 10.66C73.9382 10.5418 74.5109 10.6385 74.99 10.93C75.465 11.229 75.8028 11.7034 75.93 12.25Z" fill="url(#paint9_linear_217_858)"/>
<path d="M64.41 7.16997L74.75 3.38997L74.36 0.609973C74.3393 0.506408 74.2985 0.407891 74.24 0.319973C74.1757 0.237541 74.0979 0.166547 74.01 0.109973C73.9321 0.0552568 73.8435 0.0177571 73.75 -2.71406e-05C73.6555 -0.0292878 73.5545 -0.0292878 73.46 -2.71406e-05L63.87 3.17997L64.41 7.16997Z" fill="url(#paint10_linear_217_858)"/>
<path d="M350.75 89C362.21 185.667 373.657 281.333 385.09 376C385.231 376.978 385.173 377.974 384.921 378.93C384.668 379.885 384.226 380.779 383.62 381.56C383.01 382.341 382.248 382.991 381.38 383.47C380.514 383.943 379.562 384.239 378.58 384.34C332.62 388.667 286.677 393.107 240.75 397.66C232.56 398.06 228.06 393.48 227.53 388.89C215.757 286.723 203.987 183.49 192.22 79.19C191.69 74.51 195.66 70.48 203.86 70.89L342.38 80.64C346.49 80.92 350.27 84.69 350.75 89Z" fill="#351791"/>
<path d="M357.17 88.8201C368.67 185.9 380.177 281.96 391.69 377C391.827 377.986 391.766 378.989 391.51 379.95C391.254 380.912 390.809 381.813 390.2 382.6C389.58 383.38 388.812 384.029 387.94 384.51C387.07 384.992 386.11 385.288 385.12 385.38C337.413 389.433 289.697 393.557 241.97 397.75C239.786 397.861 237.644 397.125 235.988 395.697C234.332 394.268 233.291 392.257 233.08 390.08C221.24 287.44 209.397 183.72 197.55 78.9201C197.02 74.2201 200.17 70.6101 204.55 70.9201C252.59 74.1201 300.627 77.2901 348.66 80.4301C350.812 80.6761 352.82 81.6362 354.362 83.157C355.905 84.6778 356.893 86.6716 357.17 88.8201Z" fill="#351791"/>
<path d="M354.4 104.7C365.067 194.64 375.733 283.703 386.4 371.89C386.533 372.809 386.478 373.745 386.24 374.642C386.001 375.54 385.582 376.379 385.01 377.11C384.439 377.844 383.724 378.453 382.909 378.901C382.094 379.348 381.196 379.623 380.27 379.71C335.39 383.383 290.51 387.123 245.63 390.93C243.596 391.027 241.602 390.337 240.063 389.004C238.523 387.671 237.555 385.797 237.36 383.77C226.4 288.97 215.447 193.25 204.5 96.61C204.01 92.24 206.94 88.86 211.03 89.1C256.177 91.7 301.327 94.3 346.48 96.9C350.35 97.12 353.92 100.63 354.4 104.7Z" fill="#EAEDF3"/>
<path d="M346.48 96.88L212.61 89.21C214.113 97.9693 216.745 106.497 220.44 114.58C235.25 146.69 257 148.46 265.51 176.44C274.27 205.28 254.51 214.3 264.17 240.33C274.65 268.58 300.35 264.49 313.92 295.48C325.63 322.18 310.56 334.39 322.67 350.62C335.94 368.41 360.49 362.38 385.95 368.41C375.41 281.37 364.893 193.467 354.4 104.7C354.148 102.697 353.23 100.837 351.794 99.4189C350.357 98.0006 348.486 97.1064 346.48 96.88Z" fill="#EAEDF3"/>
<path d="M281.3 85.0499C281.377 85.3789 281.377 85.721 281.3 86.0499C281.203 86.3787 281.036 86.6824 280.81 86.9399C280.586 87.2021 280.304 87.4083 279.986 87.542C279.669 87.6757 279.324 87.7332 278.98 87.7099C278.219 87.6122 277.511 87.2647 276.968 86.7218C276.425 86.179 276.078 85.4714 275.98 84.7099C275.907 84.3806 275.907 84.0392 275.98 83.7099C276.067 83.3762 276.231 83.0678 276.46 82.8099C276.687 82.5516 276.971 82.3496 277.29 82.2199C277.606 82.0878 277.949 82.0329 278.29 82.0599C279.055 82.1493 279.767 82.4941 280.311 83.0385C280.856 83.583 281.201 84.2952 281.29 85.0599L281.3 85.0499Z" fill="#EAEDF3"/>
<g opacity="0.46">
<path opacity="0.46" d="M230.92 174.16L262.74 174.21C265.36 174.21 267.13 171.41 266.74 167.96L262.75 135.81C262.33 132.38 259.87 129.51 257.24 129.4L225.35 128.17C222.57 128.07 220.67 130.87 221.1 134.42L225.1 167.68C225.54 171.26 228.14 174.16 230.92 174.16Z" fill="#351791"/>
<path opacity="0.46" d="M302.11 131.13L272.58 130C270.01 129.89 268.26 132.59 268.68 136L272.68 168C273.12 171.43 275.56 174.22 278.11 174.22L307.59 174.27C310.01 174.27 311.59 171.58 311.21 168.27L307.3 137.27C306.86 134 304.55 131.22 302.11 131.13Z" fill="#351791"/>
<path opacity="0.46" d="M231.86 173.42L263.66 173.47C266.28 173.47 268.04 170.68 267.66 167.23L263.66 135.09C263.23 131.66 260.79 128.79 258.15 128.69L226.33 127.46C223.55 127.35 221.65 130.14 222.08 133.7L226.08 166.95C226.49 170.51 229.09 173.41 231.86 173.42Z" fill="#351791"/>
<path opacity="0.46" d="M231.86 173.42L263.66 173.47C266.28 173.47 268.04 170.68 267.66 167.23L263.66 135.09C263.23 131.66 260.79 128.79 258.15 128.69L226.33 127.46C223.55 127.35 221.65 130.14 222.08 133.7L226.08 166.95C226.49 170.51 229.09 173.41 231.86 173.42Z" fill="#351791"/>
<path opacity="0.46" d="M322.2 175H351.75C354.19 175 355.81 172.31 355.37 169L351.37 138C350.93 134.68 348.62 131.92 346.18 131.82L316.54 130.67C313.96 130.57 312.22 133.27 312.65 136.67L316.75 168.74C317.2 172.21 319.66 175 322.2 175Z" fill="#351791"/>
<path opacity="0.46" d="M323.16 174.29H352.75C355.19 174.29 356.8 171.6 356.38 168.29L352.38 137.29C351.95 133.98 349.64 131.22 347.2 131.12L317.52 130C314.95 129.9 313.2 132.6 313.68 136L317.75 168C318.09 171.49 320.53 174.28 323.16 174.29Z" fill="#351791"/>
<path opacity="0.46" d="M323.16 174.29H352.75C355.19 174.29 356.8 171.6 356.38 168.29L352.38 137.29C351.95 133.98 349.64 131.22 347.2 131.12L317.52 130C314.95 129.9 313.2 132.6 313.68 136L317.75 168C318.09 171.49 320.53 174.28 323.16 174.29Z" fill="#351791"/>
<path opacity="0.46" d="M303.02 130.45L273.51 129.31C270.94 129.2 269.19 131.9 269.62 135.31L273.62 167.31C274.04 170.74 276.49 173.53 279.03 173.53L308.48 173.58C310.91 173.58 312.53 170.9 312.1 167.58L308.19 136.58C307.75 133.32 305.43 130.52 303.02 130.45Z" fill="#351791"/>
<path opacity="0.46" d="M244.32 291.44L275.41 289.39C277.99 289.21 279.75 286.39 279.35 283.06L275.67 252C275.26 248.66 272.85 246 270.26 246.13L238.99 247.28C236.28 247.38 234.41 250.28 234.83 253.67L238.66 285.6C239.11 289 241.65 291.61 244.32 291.44Z" fill="#351791"/>
<path opacity="0.46" d="M314.89 244.46L285.46 245.52C282.92 245.62 281.16 248.4 281.55 251.71L285.23 282.71C285.62 286.02 287.99 288.56 290.52 288.4L319.75 286.45C322.17 286.29 323.83 283.58 323.45 280.33L319.95 250.15C319.6 246.92 317.33 244.36 314.89 244.46Z" fill="#351791"/>
<path opacity="0.46" d="M245.24 290.65L276.33 288.65C278.9 288.48 280.66 285.65 280.26 282.33L276.58 251.24C276.18 247.9 273.77 245.24 271.18 245.37L239.91 246.52C237.21 246.63 235.34 249.52 235.76 252.91L239.59 284.84C240.03 288.21 242.56 290.84 245.24 290.65Z" fill="#351791"/>
<path opacity="0.46" d="M245.24 290.65L276.33 288.65C278.9 288.48 280.66 285.65 280.26 282.33L276.58 251.24C276.18 247.9 273.77 245.24 271.18 245.37L239.91 246.52C237.21 246.63 235.34 249.52 235.76 252.91L239.59 284.84C240.03 288.21 242.56 290.84 245.24 290.65Z" fill="#351791"/>
<path opacity="0.46" d="M334.44 286.19L364.25 284.19C366.72 284.03 368.42 281.26 368.09 278L364.63 247.56C364.25 244.29 361.94 241.71 359.47 241.8L329.47 242.91C326.87 243 325.08 245.78 325.47 249.15L329.08 280.42C329.46 283.8 331.86 286.37 334.44 286.19Z" fill="#351791"/>
<path opacity="0.46" d="M335.34 285.43L365.13 283.43C367.6 283.27 369.29 280.55 368.96 277.25L365.5 246.8C365.14 243.54 362.83 240.96 360.34 241.04L330.34 242.15C327.74 242.23 325.95 245.02 326.34 248.39L329.95 279.66C330.35 283 332.75 285.6 335.34 285.43Z" fill="#351791"/>
<path opacity="0.46" d="M335.34 285.43L365.13 283.43C367.6 283.27 369.29 280.55 368.96 277.25L365.5 246.8C365.14 243.54 362.83 240.96 360.34 241.04L330.34 242.15C327.74 242.23 325.95 245.02 326.34 248.39L329.95 279.66C330.35 283 332.75 285.6 335.34 285.43Z" fill="#351791"/>
<path opacity="0.46" d="M315.75 243.69L286.34 244.78C283.79 244.87 282.03 247.65 282.42 250.96L286.09 281.96C286.48 285.27 288.86 287.82 291.39 287.64L320.63 285.73C323.06 285.56 324.71 282.85 324.34 279.6L320.84 249.39C320.5 246.16 318.22 243.61 315.75 243.69Z" fill="#351791"/>
<path opacity="0.46" d="M250.2 348.84L281.2 346.39C283.76 346.19 285.52 343.34 285.12 340.04L281.45 309.14C281.06 305.83 278.66 303.25 276.08 303.39L244.9 305C242.2 305.14 240.34 308 240.75 311.41L244.59 343.14C245.01 346.49 247.52 349.09 250.2 348.84Z" fill="#351791"/>
<path opacity="0.46" d="M320.47 301.15L291.17 302.62C288.64 302.76 286.89 305.5 287.28 308.84L290.92 339.61C291.31 342.9 293.68 345.36 296.2 345.2L325.33 342.89C327.74 342.7 329.39 339.95 329.03 336.74L325.54 306.74C325.16 303.52 322.9 301 320.47 301.15Z" fill="#351791"/>
<path opacity="0.46" d="M251.12 348.06L282.06 345.6C284.63 345.4 286.38 342.6 285.98 339.26L282.32 308.37C281.93 305.06 279.53 302.47 276.95 302.61L245.83 304.18C243.12 304.31 241.27 307.18 241.68 310.58L245.52 342.31C245.93 345.7 248.44 348.27 251.12 348.06Z" fill="#351791"/>
<path opacity="0.46" d="M251.12 348.06L282.06 345.6C284.63 345.4 286.38 342.6 285.98 339.26L282.32 308.37C281.93 305.06 279.53 302.47 276.95 302.61L245.83 304.18C243.12 304.31 241.27 307.18 241.68 310.58L245.52 342.31C245.93 345.7 248.44 348.27 251.12 348.06Z" fill="#351791"/>
<path opacity="0.46" d="M339.94 342.38L369.66 340C372.13 339.8 373.82 337 373.44 333.79L370.01 303.52C369.63 300.27 367.34 297.77 364.87 297.86L335.02 299.36C332.43 299.49 330.64 302.3 331.02 305.64L334.62 336.72C334.97 340.1 337.37 342.62 339.94 342.38Z" fill="#351791"/>
<path opacity="0.46" d="M340.82 341.64L370.49 339.29C372.95 339.09 374.64 336.29 374.27 333.08L370.83 302.82C370.46 299.57 368.17 297.07 365.69 297.17L335.85 298.66C333.27 298.79 331.48 301.6 331.85 304.93L335.45 336C335.85 339.32 338.25 341.85 340.82 341.64Z" fill="#351791"/>
<path opacity="0.46" d="M340.82 341.64L370.49 339.29C372.95 339.09 374.64 336.29 374.27 333.08L370.83 302.82C370.46 299.57 368.17 297.07 365.69 297.17L335.85 298.66C333.27 298.79 331.48 301.6 331.85 304.93L335.45 336C335.85 339.32 338.25 341.85 340.82 341.64Z" fill="#351791"/>
<path opacity="0.46" d="M321.36 300.37L292.08 301.84C289.54 301.97 287.8 304.71 288.19 308.05L291.83 338.82C292.21 342.11 294.58 344.58 297.11 344.41L326.23 342.1C328.63 341.91 330.23 339.16 329.91 335.96L326.43 305.96C326.03 302.76 323.75 300.24 321.36 300.37Z" fill="#351791"/>
<path opacity="0.46" d="M236.59 233.7L268 232.26C270.61 232.14 272.42 229.38 272 226.03L268.51 194.76C268.14 191.37 265.7 188.67 263.06 188.76L231.2 189.31C228.44 189.36 226.54 192.19 226.96 195.69L230.87 227.8C231.33 231.14 233.87 233.82 236.59 233.7Z" fill="#351791"/>
<path opacity="0.46" d="M308.55 187.93L278.55 188.45C275.96 188.45 274.15 191.26 274.55 194.62L277.99 225.78C278.35 229.09 280.72 231.68 283.28 231.53L312.85 230.18C315.3 230.07 317.02 227.37 316.69 224.18L313.64 193.82C313.32 190.52 311.04 187.89 308.55 187.93Z" fill="#351791"/>
<path opacity="0.46" d="M237.53 232.94L268.93 231.5C271.53 231.38 273.34 228.63 272.93 225.28L269.46 194C269.09 190.61 266.64 187.91 264.01 188L232.15 188.53C229.4 188.53 227.49 191.41 227.92 194.91L231.82 227.04C232.27 230.4 234.81 233.06 237.53 232.94Z" fill="#351791"/>
<path opacity="0.46" d="M237.53 232.94L268.93 231.5C271.53 231.38 273.34 228.63 272.93 225.28L269.46 194C269.09 190.61 266.64 187.91 264.01 188L232.15 188.53C229.4 188.53 227.49 191.41 227.92 194.91L231.82 227.04C232.27 230.4 234.81 233.06 237.53 232.94Z" fill="#351791"/>
<path opacity="0.46" d="M327.67 230.18L357.8 228.79C360.3 228.68 362.08 225.91 361.8 222.69L359.05 192C358.75 188.7 356.47 186 353.94 186.08L323.41 186.6C320.76 186.6 318.88 189.47 319.22 192.84L322.34 224.31C322.67 227.74 325.08 230.34 327.67 230.18Z" fill="#351791"/>
<path opacity="0.46" d="M328.58 229.48L358.75 228.09C361.25 227.97 363.03 225.21 362.75 221.99L360.02 191.3C359.72 188 357.44 185.3 354.92 185.39L324.39 185.9C321.74 185.9 319.86 188.77 320.2 192.14L323.31 223.61C323.58 227 325.97 229.6 328.58 229.48Z" fill="#351791"/>
<path opacity="0.46" d="M328.58 229.48L358.75 228.09C361.25 227.97 363.03 225.21 362.75 221.99L360.02 191.3C359.72 188 357.44 185.3 354.92 185.39L324.39 185.9C321.74 185.9 319.86 188.77 320.2 192.14L323.31 223.61C323.58 227 325.97 229.6 328.58 229.48Z" fill="#351791"/>
<path opacity="0.46" d="M309.48 187.18L279.48 187.69C276.88 187.74 275.08 190.5 275.48 193.86L278.91 225C279.27 228.31 281.65 230.89 284.2 230.75L313.75 229.43C316.2 229.33 317.91 226.62 317.59 223.43L314.51 193.09C314.24 189.77 311.97 187.13 309.48 187.18Z" fill="#351791"/>
</g>
<path d="M432.84 48.81L424.04 46C423.702 45.8931 423.344 45.87 422.996 45.9327C422.647 45.9954 422.319 46.1421 422.04 46.36L414.75 52C414.432 52.2551 414.046 52.4115 413.64 52.45C413.232 52.5 412.819 52.4305 412.45 52.25C412.085 52.0662 411.777 51.7861 411.56 51.44C411.341 51.0965 411.227 50.6971 411.23 50.29V41C411.225 40.6506 411.136 40.3077 410.97 40C410.807 39.6848 410.566 39.4163 410.27 39.22L402.57 34C402.232 33.7704 401.965 33.4503 401.8 33.0763C401.635 32.7023 401.578 32.2895 401.637 31.8849C401.695 31.4803 401.866 31.1003 402.13 30.7882C402.394 30.4761 402.741 30.2446 403.13 30.12L411.91 27.24C412.249 27.1303 412.555 26.9378 412.8 26.68C413.043 26.4223 413.221 26.1103 413.32 25.77L415.92 16.9C416.037 16.5139 416.258 16.1677 416.56 15.9C416.861 15.6295 417.232 15.4492 417.63 15.38C418.027 15.3096 418.435 15.3512 418.81 15.5C419.184 15.6436 419.51 15.8897 419.75 16.21L425.22 23.67C425.427 23.9598 425.702 24.1937 426.022 24.3508C426.341 24.5079 426.694 24.5832 427.05 24.57L436.28 24.3C436.689 24.2853 437.095 24.3858 437.45 24.59C437.801 24.7989 438.088 25.0998 438.28 25.46C438.472 25.8187 438.559 26.2242 438.53 26.63C438.5 27.0357 438.362 27.426 438.13 27.76L432.75 35.28C432.546 35.5663 432.413 35.8971 432.363 36.2449C432.313 36.5927 432.346 36.9476 432.46 37.28L435.55 46C435.678 46.3835 435.702 46.7941 435.62 47.19C435.525 47.5668 435.331 47.9117 435.06 48.19C434.789 48.4796 434.443 48.6874 434.06 48.79C433.664 48.9173 433.24 48.9242 432.84 48.81Z" fill="#4F52FE"/>
<path d="M412.44 38.47C412.158 38.0886 411.821 37.7515 411.44 37.47L406.44 34.07C406.183 33.9 405.979 33.6602 405.853 33.3785C405.727 33.0968 405.685 32.7851 405.73 32.48C405.769 32.1729 405.898 31.8841 406.1 31.65C406.294 31.4075 406.555 31.2268 406.85 31.13L412.6 29.22C413.264 29.0011 413.865 28.6235 414.35 28.12C414.823 27.6165 415.166 27.0056 415.35 26.34L417.05 20.59C417.141 20.3023 417.311 20.0459 417.54 19.85C417.762 19.6513 418.036 19.5196 418.33 19.47C418.625 19.4107 418.931 19.4385 419.21 19.55C419.492 19.65 419.739 19.8309 419.92 20.07L421.75 22.6L421.37 22.88L419.55 20.39C419.421 20.2113 419.244 20.0726 419.04 19.99C418.834 19.9053 418.608 19.8844 418.39 19.93C418.166 19.9541 417.956 20.0486 417.79 20.2C417.618 20.3475 417.493 20.5421 417.43 20.76L415.75 26.51C415.537 27.2591 415.146 27.9454 414.61 28.51C414.069 29.0601 413.409 29.4776 412.68 29.73L406.92 31.64C406.71 31.7132 406.524 31.8409 406.38 32.01C406.239 32.1821 406.149 32.3898 406.12 32.61C406.089 32.8275 406.12 33.0493 406.21 33.25C406.295 33.456 406.442 33.6306 406.63 33.75L411.63 37.16C412.071 37.4578 412.457 37.83 412.77 38.26L412.44 38.47Z" fill="white"/>
<path d="M415.11 48.69C414.807 48.7225 414.502 48.667 414.23 48.53C413.944 48.4015 413.701 48.1932 413.53 47.93C413.359 47.6686 413.268 47.3625 413.27 47.05V42.43H413.75V47C413.75 47.2245 413.808 47.4452 413.92 47.64C414.04 47.8315 414.209 47.987 414.41 48.09C414.611 48.19 414.836 48.2316 415.06 48.21C415.283 48.1868 415.495 48.1001 415.67 47.96L420.46 44.27C421.074 43.7986 421.793 43.4824 422.556 43.3484C423.318 43.2143 424.102 43.2663 424.84 43.5L430.59 45.35C430.802 45.4103 431.028 45.4103 431.24 45.35C431.453 45.2979 431.647 45.187 431.8 45.03C431.948 44.8692 432.051 44.6728 432.1 44.46C432.16 44.2474 432.16 44.0225 432.1 43.81L430.1 38.12C429.846 37.3913 429.77 36.6122 429.88 35.8482C429.99 35.0843 430.281 34.3578 430.73 33.73L434.25 28.83C434.39 28.6548 434.477 28.4431 434.5 28.22C434.521 27.9964 434.479 27.7715 434.38 27.57C434.279 27.3699 434.123 27.2032 433.93 27.09C433.741 26.9717 433.523 26.9093 433.3 26.91L427.25 27.1C426.632 27.1119 426.018 27.0067 425.44 26.79L425.61 26.35C426.13 26.5469 426.684 26.642 427.24 26.63L433.29 26.44C433.599 26.4305 433.905 26.5103 434.17 26.67C434.437 26.8248 434.652 27.0542 434.79 27.33C434.938 27.6022 435.004 27.9112 434.98 28.22C434.961 28.5257 434.857 28.82 434.68 29.07L431.06 34C430.645 34.5695 430.377 35.2323 430.28 35.9299C430.182 36.6276 430.258 37.3385 430.5 38L432.5 43.69C432.61 43.9807 432.63 44.2974 432.56 44.6C432.498 44.9009 432.353 45.1782 432.14 45.4C431.922 45.6184 431.649 45.7738 431.349 45.8495C431.05 45.9252 430.736 45.9184 430.44 45.83L424.75 44C424.085 43.7919 423.38 43.7469 422.695 43.8688C422.009 43.9906 421.362 44.2757 420.81 44.7L416.01 48.38C415.75 48.5758 415.435 48.6843 415.11 48.69Z" fill="white"/>
<path d="M398.75 67.91L392.32 65.84C392.066 65.7851 391.804 65.7851 391.55 65.84C391.296 65.8885 391.057 65.9945 390.85 66.15L385.51 70.28C385.278 70.467 384.997 70.5818 384.7 70.61C384.402 70.641 384.101 70.5891 383.83 70.46C383.565 70.3244 383.341 70.1208 383.18 69.87C383.018 69.6197 382.931 69.3282 382.93 69.03V62.26C382.927 62.0016 382.862 61.7477 382.74 61.52C382.62 61.2904 382.445 61.0944 382.23 60.95L376.65 57.11C376.393 56.9476 376.189 56.7151 376.06 56.44C375.938 56.1604 375.893 55.853 375.93 55.55C375.973 55.2473 376.102 54.963 376.3 54.73C376.5 54.5003 376.759 54.3306 377.05 54.24L383.47 52.13C383.718 52.0509 383.942 51.9098 384.12 51.72C384.299 51.531 384.43 51.301 384.5 51.05L386.42 44.57C386.507 44.2855 386.669 44.0298 386.89 43.83C387.111 43.6295 387.385 43.4975 387.68 43.45C387.973 43.3974 388.275 43.4287 388.551 43.5401C388.827 43.6516 389.066 43.8387 389.24 44.08L393.24 49.53C393.393 49.7399 393.596 49.9083 393.83 50.02C394.064 50.1319 394.321 50.1867 394.58 50.18L401.29 49.99C401.588 49.9775 401.883 50.0503 402.14 50.2C402.399 50.3484 402.611 50.5671 402.75 50.8308C402.89 51.0945 402.952 51.3924 402.93 51.69C402.91 51.9847 402.81 52.2682 402.64 52.51L398.75 58C398.601 58.2079 398.501 58.4475 398.46 58.7C398.421 58.956 398.449 59.2177 398.54 59.46L400.75 65.83C400.855 66.1114 400.876 66.4171 400.81 66.71C400.751 67.007 400.609 67.2811 400.4 67.5C400.192 67.7139 399.929 67.8661 399.64 67.94C399.346 68.0103 399.039 67.9999 398.75 67.91Z" fill="#351791"/>
<path d="M383.88 60.36C383.673 60.0727 383.415 59.8254 383.12 59.63L379.48 57.14C379.293 57.0155 379.144 56.8405 379.052 56.6352C378.96 56.4299 378.928 56.2027 378.96 55.98C378.987 55.7541 379.081 55.5415 379.23 55.37C379.369 55.2044 379.548 55.077 379.75 55L383.95 53.62C384.433 53.4617 384.869 53.187 385.22 52.82C385.573 52.4528 385.833 52.0073 385.98 51.52L387.22 47.29C387.279 47.07 387.4 46.8719 387.57 46.72C387.696 46.6064 387.845 46.5206 388.006 46.4682C388.168 46.4158 388.339 46.398 388.507 46.4159C388.676 46.4339 388.839 46.4871 388.986 46.5722C389.133 46.6573 389.26 46.7724 389.36 46.91L390.75 48.72L390.47 48.92L389.14 47.1C389.042 46.9708 388.91 46.8706 388.76 46.81C388.603 46.7649 388.437 46.7649 388.28 46.81C388.121 46.8345 387.971 46.9039 387.85 47.01C387.734 47.1199 387.648 47.2576 387.6 47.41L386.37 51.65C386.209 52.192 385.92 52.687 385.526 53.0928C385.133 53.4986 384.647 53.803 384.11 53.98L379.92 55.36C379.768 55.4131 379.63 55.5023 379.52 55.62C379.418 55.747 379.353 55.8989 379.33 56.06C379.308 56.2201 379.332 56.3831 379.4 56.53C379.462 56.6797 379.566 56.8082 379.7 56.9L383.35 59.39C383.669 59.6089 383.949 59.8793 384.18 60.19L383.88 60.36Z" fill="white"/>
<path d="M385.84 67.83C385.671 67.8404 385.502 67.82 385.34 67.77C385.183 67.7124 385.038 67.6278 384.91 67.52C384.788 67.403 384.69 67.2638 384.62 67.11C384.548 66.96 384.511 66.7961 384.51 66.63V63.25H384.85V66.63C384.848 66.7927 384.893 66.9525 384.98 67.09C385.064 67.2287 385.19 67.3372 385.34 67.4C385.488 67.4857 385.659 67.5241 385.83 67.51C386.002 67.4935 386.165 67.4275 386.3 67.32L389.75 64.61C390.2 64.272 390.724 64.0458 391.279 63.9502C391.833 63.8546 392.403 63.8922 392.94 64.06L397.14 65.4C397.297 65.445 397.463 65.445 397.62 65.4C397.777 65.3622 397.92 65.2787 398.03 65.16C398.143 65.043 398.222 64.898 398.26 64.74C398.3 64.5859 398.3 64.424 398.26 64.27L396.75 60.13C396.56 59.5984 396.501 59.0287 396.58 58.4696C396.658 57.9105 396.871 57.3787 397.2 56.92L399.78 53.35C399.893 53.2109 399.961 53.0401 399.974 52.8611C399.986 52.682 399.943 52.5035 399.85 52.35C399.776 52.2043 399.661 52.0829 399.52 52C399.377 51.9202 399.214 51.8821 399.05 51.89L394.64 52.02C394.19 52.0325 393.742 51.9578 393.32 51.8L393.43 51.47C393.813 51.6138 394.22 51.685 394.63 51.68L399.04 51.55C399.268 51.5371 399.494 51.5928 399.69 51.71C399.889 51.8224 400.052 51.9888 400.16 52.19C400.267 52.389 400.312 52.6152 400.29 52.84C400.276 53.0678 400.196 53.2866 400.06 53.47L397.48 57.05C397.183 57.4609 396.991 57.938 396.92 58.44C396.846 58.9422 396.901 59.4548 397.08 59.93L398.56 64.08C398.625 64.2986 398.625 64.5313 398.56 64.75C398.51 64.9673 398.403 65.1675 398.25 65.33C398.095 65.495 397.896 65.6126 397.676 65.6692C397.457 65.7258 397.226 65.7192 397.01 65.65L392.81 64.3C392.326 64.1443 391.812 64.1066 391.31 64.19C390.807 64.2777 390.333 64.4872 389.93 64.8L386.44 67.5C386.274 67.6628 386.066 67.777 385.84 67.83Z" fill="white"/>
<path d="M138.75 267.74C138.601 267.889 138.419 268.002 138.22 268.07L131.75 270.51C131.43 270.63 131.08 270.647 130.75 270.56C130.434 270.472 130.152 270.291 129.94 270.04L126.64 266.04C124.221 266.294 121.778 266.216 119.38 265.81L115.85 269.55C115.63 269.796 115.335 269.961 115.01 270.02C114.674 270.099 114.321 270.06 114.01 269.91L107.75 267.07C107.443 266.944 107.184 266.723 107.01 266.44C106.839 266.154 106.762 265.822 106.79 265.49L107.26 260.36C105.361 258.832 103.678 257.052 102.26 255.07L97.11 255.21C96.7839 255.223 96.4618 255.134 96.1891 254.955C95.9164 254.775 95.7069 254.515 95.59 254.21L93.15 247.75C93.0193 247.432 93.0016 247.079 93.1 246.75C93.1803 246.433 93.3588 246.149 93.61 245.94L97.61 242.65C97.3412 240.231 97.4187 237.787 97.84 235.39L94.1 231.85C93.854 231.626 93.6888 231.327 93.63 231C93.5656 230.68 93.6041 230.347 93.74 230.05L96.62 223.75C96.7445 223.436 96.9657 223.17 97.2516 222.99C97.5374 222.81 97.8731 222.726 98.21 222.75L103.34 223.23C104.857 221.321 106.639 219.638 108.63 218.23L108.49 213.07C108.479 212.744 108.57 212.422 108.75 212.15C108.933 211.876 109.195 211.664 109.5 211.54L116.01 209.18C116.319 209.063 116.656 209.045 116.976 209.129C117.295 209.213 117.58 209.396 117.79 209.65L121.08 213.65C123.499 213.387 125.943 213.464 128.34 213.88L131.87 210.14C132.094 209.899 132.389 209.734 132.712 209.67C133.035 209.605 133.37 209.644 133.67 209.78L139.96 212.66C140.272 212.784 140.537 213.004 140.717 213.288C140.896 213.571 140.982 213.905 140.96 214.24L140.48 219.37C142.387 220.893 144.07 222.677 145.48 224.67L150.64 224.52C150.968 224.508 151.291 224.602 151.56 224.79C151.836 224.973 152.046 225.239 152.16 225.55L154.6 232C154.714 232.324 154.714 232.676 154.6 233C154.522 233.321 154.339 233.606 154.08 233.81L150.08 237.1C150.352 239.522 150.278 241.969 149.86 244.37L153.6 247.9C153.84 248.125 154.004 248.42 154.068 248.742C154.133 249.065 154.095 249.4 153.96 249.7L151.08 256C150.95 256.305 150.726 256.561 150.44 256.73C150.158 256.902 149.829 256.979 149.5 256.95L144.37 256.48C142.844 258.385 141.06 260.067 139.07 261.48L139.22 266.63C139.207 266.845 139.153 267.056 139.06 267.25C138.988 267.431 138.883 267.598 138.75 267.74ZM131.43 268.28L137.05 266.16L136.87 260.24L137.38 259.91C139.54 258.456 141.451 256.663 143.04 254.6L143.41 254.11L149.3 254.65L151.77 249.19L147.47 245.13L147.59 244.53C148.089 241.973 148.17 239.353 147.83 236.77L147.75 236.16L152.3 232.39L150.18 226.77L144.28 226.94L143.93 226.43C142.479 224.268 140.685 222.356 138.62 220.77L138.14 220.4L138.68 214.51L133.17 212L129.11 216.3L128.52 216.18C125.957 215.7 123.333 215.64 120.75 216L120.15 216.08L116.37 211.53L110.75 213.63L110.92 219.54L110.42 219.88C108.25 221.326 106.335 223.12 104.75 225.19L104.37 225.67L98.49 225.13L96.02 230.6L100.32 234.66L100.2 235.25C99.6973 237.81 99.6128 240.434 99.95 243.02L100.04 243.63L95.47 247.44L97.59 253.05L103.5 252.88L103.84 253.39C105.29 255.556 107.084 257.471 109.15 259.06L109.64 259.43L109.09 265.32L114.56 267.78L118.61 263.49L119.22 263.6C121.776 264.108 124.397 264.192 126.98 263.85L127.54 263.74L131.43 268.28ZM136.22 252.81C133.415 255.442 129.832 257.091 126.009 257.512C122.186 257.932 118.329 257.1 115.02 255.14C112.82 253.848 110.929 252.09 109.48 249.99C109.38 249.874 109.309 249.738 109.27 249.59C109.24 249.442 109.24 249.289 109.27 249.14C109.288 248.987 109.339 248.841 109.42 248.71C109.503 248.579 109.612 248.467 109.74 248.38C109.864 248.288 110.008 248.227 110.16 248.2C110.308 248.166 110.462 248.166 110.61 248.2C110.759 248.228 110.899 248.29 111.02 248.38C111.146 248.471 111.251 248.586 111.33 248.72C113.29 251.542 116.129 253.636 119.404 254.676C122.679 255.715 126.205 255.641 129.434 254.466C132.663 253.29 135.411 251.079 137.251 248.178C139.091 245.276 139.919 241.847 139.606 238.425C139.292 235.004 137.855 231.782 135.518 229.263C133.182 226.744 130.077 225.069 126.688 224.5C123.3 223.931 119.818 224.499 116.787 226.116C113.755 227.734 111.344 230.309 109.93 233.44C109.482 234.45 109.147 235.507 108.93 236.59C108.873 236.796 108.758 236.981 108.598 237.123C108.439 237.265 108.241 237.358 108.03 237.391C107.819 237.424 107.603 237.395 107.408 237.308C107.212 237.221 107.047 237.079 106.93 236.9C106.77 236.674 106.702 236.395 106.74 236.12C107.622 232.01 109.934 228.346 113.266 225.782C116.597 223.218 120.731 221.92 124.93 222.12C127.714 222.239 130.429 223.021 132.85 224.4C135.28 225.769 137.353 227.691 138.901 230.011C140.449 232.33 141.429 234.982 141.761 237.751C142.093 240.52 141.768 243.328 140.812 245.948C139.857 248.568 138.297 250.925 136.26 252.83L136.22 252.81Z" fill="#D7D1E9"/>
<path d="M128.8 245.19C127.539 246.378 125.895 247.074 124.165 247.153C122.435 247.232 120.733 246.688 119.37 245.62C118.006 244.552 117.071 243.03 116.733 241.331C116.395 239.632 116.678 237.868 117.53 236.36C118.16 235.234 119.08 234.296 120.193 233.643C121.307 232.99 122.574 232.646 123.865 232.646C125.156 232.646 126.423 232.99 127.537 233.643C128.65 234.296 129.57 235.234 130.2 236.36C130.891 237.61 131.197 239.038 131.077 240.462C130.958 241.885 130.42 243.242 129.53 244.36C129.307 244.654 129.063 244.931 128.8 245.19ZM119.93 236.77C119.414 237.416 119.066 238.18 118.918 238.993C118.77 239.806 118.825 240.644 119.08 241.43C119.331 242.217 119.773 242.929 120.366 243.503C120.96 244.077 121.686 244.495 122.48 244.72C123.274 244.951 124.113 244.979 124.92 244.8C125.727 244.629 126.479 244.262 127.11 243.73C127.741 243.189 128.232 242.502 128.54 241.73C128.901 240.845 129 239.874 128.826 238.934C128.652 237.994 128.212 237.124 127.559 236.426C126.905 235.728 126.065 235.233 125.138 234.997C124.212 234.762 123.237 234.798 122.33 235.1C121.38 235.402 120.543 235.984 119.93 236.77Z" fill="#D7D1E9"/>
<path d="M186.2 238.54C186.018 238.721 185.783 238.839 185.53 238.88C185.281 238.929 185.023 238.901 184.79 238.8L182.79 237.99C181.938 238.54 181.025 238.989 180.07 239.33L179.5 241.43C179.43 241.701 179.276 241.944 179.061 242.123C178.846 242.302 178.579 242.41 178.3 242.43L174.99 242.65C174.712 242.666 174.436 242.596 174.2 242.449C173.964 242.302 173.779 242.086 173.67 241.83L172.83 239.83C171.835 239.608 170.869 239.272 169.95 238.83L168.04 239.91C167.794 240.039 167.517 240.098 167.24 240.08C166.961 240.053 166.698 239.937 166.49 239.75L164 237.57C163.791 237.384 163.642 237.14 163.57 236.87C163.508 236.599 163.533 236.316 163.64 236.06L164.46 234.06C163.91 233.204 163.461 232.288 163.12 231.33L161.02 230.76C160.753 230.683 160.515 230.526 160.34 230.31C160.169 230.096 160.071 229.834 160.06 229.56L159.84 226.25C159.822 225.974 159.888 225.698 160.03 225.46C160.176 225.223 160.393 225.037 160.65 224.93L162.65 224.09C162.871 223.098 163.206 222.135 163.65 221.22L162.58 219.3C162.439 219.058 162.38 218.778 162.41 218.5C162.438 218.223 162.55 217.962 162.73 217.75L164.92 215.26C165.099 215.049 165.341 214.902 165.61 214.84C165.879 214.769 166.164 214.79 166.42 214.9L168.42 215.72C169.269 215.165 170.182 214.715 171.14 214.38L171.72 212.28C171.794 212.017 171.947 211.782 172.16 211.61C172.374 211.439 172.636 211.338 172.91 211.32L176.22 211.1C176.496 211.082 176.772 211.148 177.01 211.29C177.242 211.438 177.426 211.65 177.54 211.9L178.39 213.9C179.385 214.122 180.351 214.458 181.27 214.9L183.18 213.81C183.425 213.679 183.703 213.623 183.98 213.65C184.259 213.677 184.522 213.793 184.73 213.98L187.23 216.16C187.438 216.344 187.584 216.588 187.649 216.858C187.713 217.128 187.693 217.412 187.59 217.67L186.76 219.67C187.319 220.52 187.77 221.437 188.1 222.4L190.2 222.96C190.467 223.039 190.703 223.195 190.88 223.41C191.051 223.627 191.149 223.894 191.16 224.17L191.38 227.48C191.408 227.756 191.345 228.033 191.2 228.27C191.056 228.506 190.838 228.689 190.58 228.79L188.58 229.64C188.369 230.629 188.051 231.591 187.63 232.51L188.71 234.43C188.85 234.672 188.909 234.953 188.881 235.231C188.852 235.509 188.736 235.771 188.55 235.98L186.36 238.47L186.2 238.54ZM178.2 237.54L178.78 237.37C179.915 237.022 180.986 236.492 181.95 235.8L182.45 235.44L185 236.44L186.36 234.89L185.04 232.5L185.33 231.96C185.892 230.91 186.277 229.775 186.47 228.6L186.57 227.99L189.15 227L189.01 224.94L186.36 224.21L186.17 223.63C185.831 222.489 185.3 221.413 184.6 220.45L184.25 219.95L185.25 217.4L183.75 216.05L181.36 217.42L180.83 217.13C179.764 216.573 178.616 216.188 177.43 215.99L176.84 215.89L175.75 213.35L173.69 213.5L172.97 216.14L172.39 216.32C171.252 216.679 170.176 217.212 169.2 217.9L168.71 218.25L166.16 217.25L164.75 218.77L166.11 221.16L165.83 221.69C165.271 222.744 164.89 223.882 164.7 225.06L164.59 225.66L162.03 226.73L162.16 228.79L164.82 229.51L164.99 230.09C165.339 231.233 165.873 232.31 166.57 233.28L166.92 233.78L165.86 236.33L167.42 237.68L169.81 236.32L170.34 236.61C171.397 237.163 172.534 237.548 173.71 237.75L174.31 237.84L175.38 240.38L177.44 240.24L178.2 237.54ZM181.83 233.54C180.707 234.585 179.338 235.329 177.85 235.704C176.363 236.079 174.805 236.073 173.32 235.686C171.836 235.3 170.473 234.545 169.358 233.491C168.242 232.438 167.411 231.12 166.94 229.66C166.879 229.389 166.921 229.104 167.057 228.862C167.194 228.62 167.416 228.438 167.68 228.35C167.946 228.266 168.234 228.283 168.487 228.4C168.74 228.516 168.941 228.723 169.05 228.98C169.382 230.004 169.948 230.937 170.703 231.704C171.458 232.471 172.381 233.052 173.4 233.4C174.26 233.692 175.169 233.812 176.076 233.753C176.982 233.693 177.868 233.456 178.683 233.054C179.497 232.651 180.225 232.093 180.823 231.409C181.421 230.726 181.879 229.931 182.17 229.07C182.607 227.778 182.649 226.386 182.29 225.07C181.931 223.752 181.19 222.569 180.16 221.67C179.481 221.069 178.689 220.61 177.83 220.32C176.972 220.028 176.064 219.913 175.16 219.98C174.254 220.036 173.368 220.271 172.554 220.673C171.741 221.075 171.015 221.635 170.42 222.32C170.102 222.689 169.821 223.087 169.58 223.51C169.507 223.638 169.412 223.753 169.3 223.85C169.183 223.937 169.051 224.001 168.91 224.04C168.768 224.071 168.622 224.071 168.48 224.04C168.337 224.021 168.198 223.977 168.07 223.91C167.943 223.839 167.831 223.744 167.74 223.63C167.648 223.518 167.58 223.389 167.54 223.25C167.509 223.108 167.509 222.962 167.54 222.82C167.553 222.676 167.597 222.536 167.67 222.41C167.983 221.84 168.359 221.307 168.79 220.82C169.562 219.868 170.519 219.081 171.602 218.507C172.686 217.933 173.874 217.583 175.096 217.478C176.317 217.374 177.548 217.517 178.713 217.898C179.878 218.28 180.954 218.893 181.877 219.7C182.8 220.508 183.551 221.493 184.084 222.597C184.618 223.701 184.923 224.901 184.982 226.126C185.042 227.35 184.853 228.574 184.428 229.725C184.003 230.875 183.351 231.928 182.51 232.82C182.3 233.02 182.09 233.25 181.86 233.46L181.83 233.54Z" fill="#D7D1E9"/>
<path d="M346.75 152.28C348.732 147.972 349.394 143.174 348.652 138.491C347.91 133.807 345.798 129.449 342.581 125.965C339.364 122.481 335.187 120.028 330.577 118.916C325.968 117.804 321.132 118.082 316.681 119.715C312.229 121.349 308.361 124.264 305.565 128.094C302.769 131.924 301.169 136.496 300.969 141.234C300.769 145.971 301.977 150.662 304.44 154.714C306.904 158.766 310.512 161.997 314.81 164C317.675 165.335 320.777 166.092 323.935 166.225C327.094 166.358 330.248 165.866 333.216 164.777C336.183 163.688 338.907 162.024 341.23 159.879C343.552 157.734 345.428 155.152 346.75 152.28Z" fill="#FB6B4B"/>
<path opacity="0.73" d="M325.08 158.76C325.007 158.812 324.92 158.839 324.83 158.84C324.744 158.839 324.66 158.811 324.59 158.76L314.33 149.3C314.252 149.227 314.205 149.127 314.2 149.02C314.202 148.917 314.241 148.817 314.31 148.74C314.936 148.033 315.407 147.201 315.69 146.3C315.699 145.302 315.473 144.315 315.03 143.42C314.323 141.762 313.917 139.991 313.83 138.19C313.83 134.74 311.07 132.07 310.75 131.77C310.46 131.432 310.272 131.018 310.21 130.576C310.148 130.135 310.214 129.685 310.4 129.28C310.72 128.67 311.53 128.04 313.49 128.51C316.27 129.17 317.74 132 318.82 134.06C319.099 134.618 319.417 135.156 319.77 135.67C319.93 135.88 320.05 135.9 320.15 135.9C320.87 135.9 322.15 134.44 323.24 133.12C323.67 132.63 324.11 132.12 324.55 131.64C326.68 129.34 328.3 128.95 329.97 130.36C330.358 130.719 330.65 131.169 330.82 131.67C330.987 132.176 331.022 132.717 330.92 133.24C331.49 133.143 332.075 133.177 332.63 133.34C333.183 133.509 333.69 133.803 334.11 134.2C334.383 134.524 334.584 134.903 334.7 135.31C334.822 135.715 334.859 136.14 334.81 136.56C335.379 136.481 335.958 136.579 336.47 136.84C336.982 137.099 337.404 137.507 337.68 138.01C337.907 138.407 338.05 138.846 338.1 139.3C338.149 139.755 338.102 140.215 337.96 140.65C338.237 140.6 338.523 140.62 338.79 140.71C339.056 140.801 339.291 140.964 339.47 141.18C340.29 142.18 339.88 144.31 338.47 146.18C336.41 148.98 325.54 158.28 325.05 158.65L325.08 158.76ZM315.14 148.94L324.86 157.94C326.57 156.48 336.04 148.35 337.86 145.82C339.12 144.1 339.36 142.36 338.86 141.75C338.48 141.29 337.71 141.54 337.29 141.75C337.206 141.78 337.114 141.78 337.03 141.75C336.985 141.741 336.943 141.723 336.905 141.697C336.867 141.672 336.835 141.639 336.81 141.6C336.751 141.53 336.719 141.441 336.719 141.35C336.719 141.259 336.751 141.17 336.81 141.1C337.1 140.73 337.271 140.28 337.3 139.81C337.328 139.34 337.213 138.873 336.97 138.47C336.721 138.031 336.324 137.694 335.85 137.52C335.379 137.345 334.861 137.345 334.39 137.52C334.324 137.535 334.256 137.535 334.19 137.52C334.125 137.499 334.066 137.461 334.02 137.41C333.97 137.365 333.935 137.306 333.92 137.24C333.9 137.178 333.9 137.112 333.92 137.05C334.01 136.671 334.017 136.277 333.939 135.895C333.861 135.514 333.701 135.154 333.47 134.84C332.92 134.22 331.89 134.01 330.47 134.22C330.404 134.235 330.336 134.235 330.27 134.22C330.206 134.192 330.148 134.151 330.1 134.1C330.058 134.048 330.03 133.986 330.02 133.92C330 133.855 330 133.785 330.02 133.72C330.181 133.267 330.209 132.778 330.1 132.31C329.99 131.841 329.751 131.411 329.41 131.07C328.29 130.07 327.17 130 325.07 132.28C324.64 132.74 324.2 133.28 323.78 133.74C322.37 135.4 321.16 136.82 320.07 136.8C319.881 136.79 319.697 136.739 319.53 136.65C319.365 136.554 319.222 136.424 319.11 136.27C318.735 135.718 318.401 135.14 318.11 134.54C317.11 132.62 315.73 129.96 313.32 129.39C312.5 129.18 311.4 129.09 311.1 129.76C310.995 130.011 310.957 130.285 310.99 130.555C311.023 130.825 311.127 131.082 311.29 131.3C311.63 131.62 314.65 134.52 314.62 138.3C314.705 140.022 315.095 141.714 315.77 143.3C316.28 144.7 316.77 145.8 316.45 146.62C316.163 147.504 315.716 148.328 315.13 149.05L315.14 148.94Z" fill="white"/>
<path d="M148.95 427.84C146.08 428.08 141.12 428.49 137.21 428.66C135.699 428.82 134.171 428.67 132.72 428.22V428.47C132.732 428.67 132.817 428.859 132.96 429C133.104 429.138 133.291 429.223 133.49 429.24C138.599 429.53 143.721 429.53 148.83 429.24C148.926 429.231 149.018 429.2 149.1 429.15C149.185 429.098 149.254 429.024 149.302 428.936C149.349 428.848 149.373 428.75 149.37 428.65C149.372 428.552 149.348 428.455 149.3 428.37C149.196 428.185 149.079 428.008 148.95 427.84Z" fill="#4F52FE"/>
<path d="M137.21 428.69C141.12 428.52 146.09 428.11 148.95 427.86C146.13 424.41 137.21 422.11 137.21 422.11H134.68C133.383 423.903 132.684 426.058 132.68 428.27C134.146 428.714 135.687 428.857 137.21 428.69Z" fill="#351791"/>
<path d="M134.26 417.94L134.5 422.61C134.514 422.864 134.616 423.105 134.79 423.29C134.968 423.475 135.205 423.592 135.46 423.62C136.104 423.717 136.761 423.662 137.38 423.46C137.599 423.387 137.794 423.255 137.944 423.078C138.094 422.902 138.193 422.688 138.23 422.46L139.05 417.92L134.26 417.94Z" fill="#FEB3B1"/>
<path d="M101.52 428.62C101.066 428.6 100.628 428.447 100.26 428.18C99.9019 427.911 99.6307 427.542 99.48 427.12C99.4013 427.504 99.4691 427.903 99.67 428.24C99.8699 428.58 100.186 428.835 100.56 428.96C101.515 429.329 102.538 429.489 103.56 429.43C103.989 429.426 104.411 429.331 104.8 429.15C105.185 428.969 105.527 428.706 105.8 428.38C104.89 428.86 103.58 428.91 101.52 428.62Z" fill="#4F52FE"/>
<path d="M107.41 417.91H105.33C102.16 417.85 100.17 424.53 99.52 427.12C99.6699 427.538 99.9394 427.904 100.295 428.17C100.65 428.437 101.076 428.593 101.52 428.62C103.58 428.91 104.89 428.86 105.83 428.39C107.336 426.134 108.357 423.591 108.83 420.92C108.971 420.332 108.907 419.713 108.646 419.167C108.386 418.621 107.946 418.181 107.4 417.92L107.41 417.91Z" fill="#351791"/>
<path d="M105.55 413.58L104.39 418.14C104.326 418.415 104.354 418.703 104.47 418.96C104.589 419.22 104.794 419.432 105.05 419.56C105.773 419.971 106.599 420.169 107.43 420.13C107.624 420.11 107.809 420.034 107.96 419.91C108.111 419.787 108.225 419.624 108.29 419.44L109.98 414.65L105.55 413.58Z" fill="#FEB3B1"/>
<path d="M104.17 414.91C105.61 416.18 110.28 416.35 110.28 416.35C127.11 375.95 133.99 370.19 133.99 370.19C131.57 385.44 133.61 419.19 133.61 419.19C136.38 420.42 139.97 419.19 139.97 419.19C140.181 397.618 143.08 376.155 148.6 355.3C137.23 355.04 131.17 351.15 129.2 349.54C119.68 364.9 104.17 414.91 104.17 414.91Z" fill="#351791"/>
<path d="M132.05 303.14C129.9 313.88 130.67 333.14 131.18 341.88C131.32 344.35 129.59 347.76 128.18 350.09C128.131 350.176 128.1 350.271 128.09 350.37C128.07 350.469 128.07 350.571 128.09 350.67C128.123 350.764 128.17 350.851 128.23 350.93C128.292 351.009 128.371 351.074 128.46 351.12C134.491 354.183 141.073 356.009 147.82 356.49C148.113 356.498 148.401 356.41 148.64 356.24C148.877 356.066 149.046 355.815 149.12 355.53C155.91 330.21 163.78 314.03 163.78 314.03C155.13 300.13 132.05 303.14 132.05 303.14Z" fill="#4F52FE"/>
<g opacity="0.19">
<path opacity="0.19" d="M135.15 369.23C135.053 369.228 134.957 369.204 134.87 369.16C134.749 369.083 134.662 368.96 134.63 368.82C134.611 368.753 134.605 368.684 134.614 368.615C134.622 368.546 134.645 368.48 134.68 368.42C136.372 365.94 138.691 363.953 141.4 362.66C141.465 362.633 141.535 362.619 141.605 362.619C141.675 362.619 141.745 362.633 141.81 362.66C141.945 362.706 142.056 362.803 142.12 362.93C142.13 363 142.13 363.07 142.12 363.14C142.13 363.206 142.13 363.274 142.12 363.34C142.099 363.408 142.061 363.47 142.01 363.52C141.969 363.577 141.914 363.621 141.85 363.65C139.345 364.877 137.199 366.73 135.62 369.03C135.569 369.111 135.491 369.171 135.4 369.2C135.321 369.231 135.235 369.242 135.15 369.23Z" fill="#4F52FE"/>
</g>
<path d="M118.55 334C119.472 339.891 121.809 345.47 125.36 350.26L126.92 348.99C125.817 343.887 125.553 338.638 126.14 333.45C123.599 333.106 121.015 333.294 118.55 334Z" fill="#FEB3B1"/>
<path d="M134.45 316.39L132.05 303.14C132.05 303.14 115.98 315.42 118.55 334C121.015 333.294 123.599 333.106 126.14 333.45C126.88 327.47 129.07 321 134.45 316.39Z" fill="#4F52FE"/>
<path d="M163.82 314L157.62 327.36C158.62 335.43 162.96 338.87 167.62 340.25C167.849 337.258 168.551 334.322 169.7 331.55C163.75 325.4 163.82 314 163.82 314Z" fill="#4F52FE"/>
<path d="M169.75 331.56C168.601 334.332 167.899 337.268 167.67 340.26C180.13 345.06 183.42 335.72 183.42 335.72L181.12 335.31C175.89 335.86 172.25 334.18 169.75 331.56Z" fill="url(#paint11_linear_217_858)"/>
<path d="M189.1 328.35L112.39 356.29C111.642 356.565 110.961 356.994 110.39 357.55C109.8 358.115 109.334 358.796 109.02 359.55C108.707 360.297 108.554 361.101 108.57 361.91C108.583 362.72 108.76 363.52 109.09 364.26L109.33 364.76C109.623 365.42 110.048 366.012 110.58 366.5C111.104 366.994 111.722 367.378 112.397 367.629C113.072 367.879 113.791 367.992 114.51 367.96C115.229 367.931 115.936 367.761 116.59 367.46L191.06 333L189.1 328.35Z" fill="#1E0862"/>
<path d="M224.4 270.16C201.12 270.16 182.21 288.69 182.21 311.55C182.21 334.41 201.1 352.93 224.4 352.93C247.7 352.93 266.59 334.4 266.59 311.54C266.59 288.68 247.65 270.16 224.4 270.16ZM224.4 346.88C204.54 346.88 188.4 331.07 188.4 311.57C188.4 292.07 204.47 276.21 224.4 276.21C244.33 276.21 260.4 292.03 260.4 311.52C260.4 331.01 244.28 346.86 224.4 346.86V346.88Z" fill="#1E0862"/>
<path opacity="0.66" d="M185.43 316.68C185.395 316.682 185.361 316.676 185.328 316.664C185.295 316.652 185.265 316.634 185.24 316.61C185.213 316.588 185.191 316.561 185.175 316.53C185.16 316.499 185.151 316.465 185.15 316.43C185.02 315.43 184.93 314.43 184.88 313.43C184.891 313.363 184.926 313.302 184.98 313.26C185.031 313.218 185.094 313.194 185.16 313.19C185.229 313.192 185.296 313.217 185.35 313.26C185.4 313.305 185.435 313.364 185.45 313.43C185.472 314.391 185.559 315.35 185.71 316.3C185.715 316.336 185.715 316.373 185.71 316.41C185.7 316.446 185.683 316.48 185.66 316.51C185.639 316.541 185.611 316.569 185.58 316.59H185.48L185.43 316.68ZM185.71 305.11H185.61C185.578 305.089 185.551 305.061 185.53 305.03C185.521 304.997 185.521 304.963 185.53 304.93C185.525 304.893 185.525 304.856 185.53 304.82C185.991 302.142 186.735 299.521 187.75 297C190.756 289.774 195.844 283.606 202.368 279.282C208.891 274.958 216.554 272.674 224.38 272.72C231.889 272.709 239.25 274.813 245.62 278.79C245.649 278.814 245.676 278.841 245.7 278.87C245.706 278.903 245.706 278.937 245.7 278.97C245.71 279.006 245.71 279.044 245.7 279.08C245.709 279.113 245.709 279.147 245.7 279.18C245.682 279.212 245.658 279.24 245.628 279.262C245.599 279.285 245.566 279.301 245.53 279.31C245.462 279.335 245.388 279.335 245.32 279.31C239.034 275.408 231.779 273.35 224.38 273.37C216.663 273.313 209.105 275.558 202.671 279.819C196.237 284.08 191.219 290.163 188.26 297.29C187.237 299.759 186.483 302.33 186.01 304.96C185.991 305.023 185.948 305.077 185.89 305.11C185.844 305.121 185.796 305.121 185.75 305.11H185.71Z" fill="white"/>
<path d="M126.28 348.74L133.53 348.15L136.67 351.03C136.67 351.03 135.93 352.03 133.61 351.46C131.796 351.067 129.953 350.823 128.1 350.73C128.1 350.73 124.9 352.17 124.86 349.47L126.28 348.74Z" fill="#FEB3B1"/>
<path d="M182.46 337.43C183.09 337.92 185.24 336.91 186.56 336.2C186.873 336.032 187.117 335.761 187.25 335.432C187.383 335.103 187.397 334.738 187.29 334.4C186.97 333.4 186.44 332.12 185.79 331.96C184.75 331.69 179.88 335.42 182.46 337.43Z" fill="#FEB3B1"/>
<path opacity="0.66" d="M113.89 366.36H113.75C110.75 365.36 110.06 363.55 110 362.24C109.978 361.286 110.256 360.35 110.794 359.563C111.332 358.775 112.104 358.176 113 357.85L122.22 354.25C122.285 354.23 122.355 354.23 122.42 354.25C122.48 354.282 122.526 354.336 122.55 354.4C122.57 354.465 122.57 354.535 122.55 354.6C122.524 354.663 122.478 354.715 122.42 354.75L113.21 358.35C112.424 358.628 111.748 359.15 111.28 359.84C110.812 360.529 110.571 361.347 110.59 362.18C110.66 363.82 111.8 365.06 113.95 365.78C114.013 365.799 114.067 365.842 114.1 365.9C114.119 365.962 114.119 366.028 114.1 366.09C114.099 366.123 114.09 366.156 114.075 366.185C114.059 366.215 114.037 366.24 114.01 366.26C113.988 366.283 113.962 366.301 113.932 366.313C113.903 366.325 113.872 366.331 113.84 366.33L113.89 366.36Z" fill="white"/>
<path opacity="0.66" d="M125.17 353.7C125.104 353.698 125.04 353.673 124.99 353.63C124.936 353.588 124.901 353.527 124.89 353.46C124.866 353.399 124.866 353.331 124.89 353.27C124.904 353.239 124.925 353.211 124.951 353.189C124.977 353.166 125.007 353.15 125.04 353.14L126.24 352.68H126.34H126.45C126.486 352.695 126.517 352.719 126.54 352.75C126.567 352.775 126.587 352.806 126.6 352.84C126.625 352.911 126.625 352.989 126.6 353.06C126.572 353.128 126.518 353.182 126.45 353.21L125.26 353.68L125.17 353.7Z" fill="white"/>
<path d="M277.47 73.47C274.818 70.6282 271.434 68.5728 267.69 67.53L235.09 58L227.16 76.31C227.16 76.31 255.69 81.59 263.02 83.16C270.35 84.73 301.1 116.48 301.1 116.48L311.1 110.8L277.47 73.47Z" fill="#FEB3B1"/>
<path d="M190.12 54.75C190.12 54.75 210.41 43.86 244.86 57.62C243.6 78.72 242.03 81.96 242.03 81.96C242.03 81.96 188.5 79.77 190.12 54.75Z" fill="#FB6B4B"/>
<path d="M301.65 115.27C301.65 115.27 298.02 122.94 300.13 125.82C302.24 128.7 303.64 139.56 306.45 137.04C309.26 134.52 307.5 128.23 307.5 128.23C307.5 128.23 319.29 119.42 321.39 123.72C323.49 128.02 326.39 129.11 327.48 128.27C327.48 128.27 324.67 123.27 323.48 120.89C328.28 120.83 334.73 121.51 335.95 120.18C337.17 118.85 329.15 113.6 311.07 110.82L301.65 115.27Z" fill="#FEB3B1"/>
<path d="M514.98 234.65C516.162 231.77 516.741 228.678 516.682 225.565C516.622 222.452 515.925 219.385 514.634 216.552C513.343 213.719 511.484 211.181 509.174 209.094C506.863 207.008 504.149 205.417 501.2 204.42C496.455 202.913 491.333 203.108 486.715 204.969C482.098 206.831 478.273 210.243 475.9 214.62C473.568 218.875 472.65 223.761 473.28 228.572C473.909 233.382 476.052 237.868 479.4 241.38C480.19 242.242 480.717 243.312 480.919 244.464C481.121 245.615 480.99 246.801 480.54 247.88L479.06 251.49C478.707 252.342 478.704 253.299 479.052 254.153C479.401 255.006 480.072 255.688 480.92 256.05L484.09 257.39C484.939 257.736 485.891 257.736 486.74 257.39C487.58 257.024 488.242 256.341 488.58 255.49L490.05 251.91C490.464 250.84 491.184 249.915 492.119 249.251C493.054 248.586 494.163 248.21 495.31 248.17C499.553 248.106 503.683 246.79 507.182 244.389C510.682 241.987 513.394 238.606 514.98 234.67V234.65Z" fill="#E9ECFE"/>
<path d="M476 263.27C475.924 263.255 475.846 263.255 475.77 263.27C475.694 263.276 475.619 263.296 475.55 263.33C475.483 263.366 475.424 263.418 475.38 263.48C475.331 263.541 475.297 263.613 475.28 263.69C475.051 264.641 475.169 265.642 475.613 266.514C476.057 267.385 476.798 268.069 477.702 268.442C478.606 268.815 479.614 268.853 480.543 268.548C481.473 268.243 482.262 267.616 482.77 266.78C482.94 266.49 483.87 264.86 483.02 264.78L476 263.27Z" fill="#D7D1E9"/>
<path d="M483.38 254.58C483.267 254.52 483.174 254.43 483.11 254.32C483.07 254.196 483.07 254.064 483.11 253.94L488.39 230.19C488.402 230.118 488.429 230.05 488.47 229.99C488.513 229.933 488.568 229.886 488.63 229.85C488.689 229.81 488.757 229.782 488.827 229.77C488.898 229.758 488.971 229.762 489.04 229.78C489.111 229.797 489.177 229.827 489.235 229.87C489.294 229.913 489.343 229.968 489.38 230.03C489.42 230.091 489.447 230.16 489.459 230.233C489.471 230.305 489.468 230.379 489.45 230.45L484.75 251.28L496.34 233.51C496.373 233.449 496.421 233.397 496.48 233.36C496.539 233.316 496.608 233.285 496.68 233.27H496.89C496.959 233.286 497.024 233.316 497.08 233.36C497.141 233.399 497.192 233.451 497.232 233.511C497.271 233.571 497.298 233.639 497.31 233.71C497.327 233.781 497.329 233.855 497.317 233.927C497.305 233.999 497.279 234.068 497.24 234.13L484.05 254.4C483.981 254.506 483.873 254.581 483.75 254.61C483.627 254.645 483.496 254.634 483.38 254.58Z" fill="white"/>
<path d="M483.29 263.46L476.65 262.11C476.447 262.068 476.268 261.95 476.15 261.78C476.039 261.601 476 261.387 476.04 261.18C476.061 261.078 476.102 260.982 476.16 260.896C476.219 260.81 476.293 260.737 476.38 260.68C476.555 260.568 476.766 260.529 476.97 260.57L483.6 261.91C483.704 261.929 483.803 261.97 483.89 262.03C483.975 262.088 484.046 262.163 484.1 262.25C484.16 262.337 484.201 262.436 484.22 262.54C484.24 262.639 484.24 262.741 484.22 262.84C484.199 262.943 484.159 263.042 484.1 263.13C484.042 263.215 483.967 263.286 483.88 263.34C483.793 263.4 483.694 263.441 483.59 263.46C483.491 263.48 483.389 263.48 483.29 263.46Z" fill="#D7D1E9"/>
<path d="M484.25 261L477.61 259.66C477.498 259.631 477.393 259.58 477.3 259.51C477.208 259.441 477.133 259.352 477.08 259.25C477.029 259.147 476.999 259.035 476.99 258.92C476.99 258.804 477.01 258.689 477.05 258.58C477.115 258.412 477.24 258.273 477.4 258.19C477.562 258.104 477.749 258.076 477.93 258.11L484.56 259.47C484.673 259.492 484.779 259.54 484.87 259.61C484.959 259.682 485.034 259.77 485.09 259.87C485.141 259.973 485.171 260.085 485.18 260.2C485.18 260.313 485.16 260.425 485.12 260.53C485.055 260.698 484.93 260.837 484.77 260.92C484.613 261.01 484.427 261.039 484.25 261Z" fill="#D7D1E9"/>
<path d="M245.58 395.92L245.7 396.27C246.439 396.179 247.166 396.012 247.87 395.77V395.4C247.132 395.672 246.363 395.847 245.58 395.92Z" fill="#351791"/>
<path d="M147.2 297.54C148.55 302.09 151.75 303.26 153.2 303.22C154.65 303.18 157.1 304.11 157.05 302.51C157.138 301.142 157.428 299.794 157.91 298.51H159.07C159.07 298.51 158.42 294.22 157.91 291.51C157.4 288.8 154.45 285.13 154.45 285.13C143.37 284.88 145.85 293 147.2 297.54Z" fill="#FEB3B1"/>
<path d="M149.61 294.61L150.11 295.8L152.75 302C152.68 302.93 152.49 304.84 152.37 306.56C152.344 306.989 152.221 307.406 152.01 307.78C151.799 308.154 151.505 308.475 151.151 308.719C150.798 308.963 150.393 309.123 149.968 309.187C149.544 309.252 149.11 309.218 148.7 309.09C148.3 308.96 147.88 308.83 147.45 308.71C147.075 308.597 146.726 308.408 146.427 308.154C146.128 307.901 145.885 307.588 145.712 307.236C145.54 306.884 145.441 306.5 145.424 306.109C145.406 305.717 145.47 305.326 145.61 304.96L149.61 294.61Z" fill="#FEB3B1"/>
<path d="M154.52 282.57C153.62 280.34 150.02 280.84 150.52 281.96C150.65 282.308 150.701 282.68 150.67 283.05C150.624 283.404 150.505 283.745 150.32 284.05C150.32 284.05 149.01 282.69 149.04 284.05C149.07 285.41 147.76 284.36 144.83 285.84C141.9 287.32 143.66 292.65 144.48 294.23C145.3 295.81 147 299.18 147.83 299.15C148.66 299.12 148.7 295.1 149.21 295.09C149.72 295.08 150.01 295.85 150.01 295.85L151.29 295.56C152.08 294.07 150.09 291.56 151.08 289.92C152.07 288.28 153.08 290.85 156.9 288.92C160.72 286.99 158.35 282.38 158.21 282.16C156.75 279.77 155.42 284.8 154.52 282.57Z" fill="#1E0862"/>
<path d="M147.97 293.23C147.79 294.82 149.17 296.23 149.78 296.23C150.39 296.23 150.26 293.59 150.26 293.59C149.94 291.78 148.16 291.64 147.97 293.23Z" fill="#FEB3B1"/>
<path d="M148.82 293.37C148.35 294.22 149.29 295.37 149.72 294.86C150.15 294.35 149.83 293.34 149.83 293.34C149.75 292.74 149.28 292.51 148.82 293.37Z" fill="url(#paint12_linear_217_858)"/>
<path d="M154.3 294.27C154.3 294.27 154.38 294.2 154.95 293.58C155.177 293.385 155.441 293.238 155.726 293.147C156.011 293.056 156.312 293.023 156.61 293.05L156.49 292.41C155.983 292.472 155.505 292.681 155.116 293.012C154.727 293.342 154.443 293.78 154.3 294.27Z" fill="#1E0862"/>
<path d="M155.39 294.4C155.372 294.262 155.408 294.122 155.49 294.01C155.532 293.955 155.585 293.909 155.645 293.875C155.705 293.84 155.771 293.818 155.84 293.81C155.931 293.805 156.021 293.826 156.1 293.87C156.178 293.921 156.243 293.99 156.29 294.07C156.331 294.15 156.349 294.24 156.34 294.33C156.331 294.424 156.296 294.514 156.24 294.59C156.187 294.662 156.114 294.718 156.03 294.75C155.942 294.775 155.848 294.775 155.76 294.75C155.67 294.729 155.587 294.684 155.52 294.62C155.454 294.555 155.409 294.471 155.39 294.38V294.4Z" fill="#1E0862"/>
<path d="M161.01 287C160.894 287.439 160.658 287.837 160.33 288.15C160.01 288.468 159.609 288.693 159.17 288.8C158.425 288.99 157.651 289.03 156.89 288.92C157.77 288.77 159.1 288.61 159.74 287.68C159.911 287.45 160.011 287.176 160.03 286.89L161.01 287Z" fill="#1E0862"/>
<path d="M150.11 295.77C152 302.62 152.75 302 152.75 302C152.75 302 152.63 303.16 152.52 304.59C151.6 304.05 150.718 303.449 149.88 302.79C149.26 302.22 150.03 296.38 150.11 295.77Z" fill="url(#paint13_linear_217_858)"/>
<path d="M152.47 300.06C151.97 299.56 151.29 295.59 151.29 295.59L150.13 295.86C150.13 295.86 150.63 301.97 151.13 302.4C152.214 303.138 153.419 303.68 154.69 304C155.99 304.31 157.38 303.63 157.38 303C157.342 302.457 157.258 301.919 157.13 301.39C157.13 301.39 152.96 300.56 152.47 300.06Z" fill="#1E0862"/>
<path d="M163.96 18.93C165.348 18.0513 166.917 17.5007 168.55 17.32L168.27 15.87C166.576 16.3146 165.004 17.1341 163.67 18.2678C162.335 19.4015 161.273 20.8205 160.56 22.42C161.413 21.0129 162.576 19.8192 163.96 18.93Z" fill="#1E0862"/>
<path d="M174.21 22C171.34 19.75 167.27 18.89 164.1 20.66C163.08 21.2185 162.144 21.9188 161.32 22.74C161.78 22.39 162.19 21.96 162.68 21.66C164.096 20.6396 165.794 20.0841 167.54 20.07C169.83 20.1432 172.023 21.0132 173.74 22.53L174.21 22Z" fill="#1E0862"/>
<path d="M166.75 49.1C172.684 56.3579 178.072 64.0456 182.87 72.1C184.05 76.52 181.03 82.25 178.54 84.96C176.627 87.1458 174.395 89.0304 171.92 90.55C171.197 90.9489 170.382 91.1522 169.556 91.14C168.73 91.1277 167.921 90.9002 167.21 90.48C166.492 90.0682 165.898 89.4706 165.49 88.75C165.079 88.0345 164.858 87.2252 164.85 86.4C167.19 74.77 161.74 71.4 161.74 71.4L166.75 49.1Z" fill="#FEB3B1"/>
<path d="M165.15 77.31C163.181 73.6856 160.966 70.2007 158.52 66.88L166.58 48C167.796 50.5394 169.436 52.8526 171.43 54.84C172.4 67.15 168.8 73.75 165.15 77.31Z" fill="url(#paint14_linear_217_858)"/>
<path d="M166.96 45.18C169.69 64.26 162.03 71.81 157.19 74.8C152.35 77.79 148.19 74.55 139.27 64.71C130.35 54.87 125.1 41.48 125.21 36.44C125.32 31.4 128.82 30.75 128.82 30.75C151.35 10.31 164.22 26.11 166.96 45.18Z" fill="#FEB3B1"/>
<path d="M148.44 28.91C152.44 23.43 153.96 26.99 154.76 28.27C155.56 29.55 156.01 34.84 159.1 39.83C161.98 44.47 160.48 45.9 160.48 45.9C160.48 45.9 161.91 39.82 164.81 44.51C166.539 47.2931 167.885 50.2969 168.81 53.44C172.74 49.5099 174.961 44.1879 174.99 38.63C174.94 24.12 165.7 23.63 162.36 21.37C159.02 19.11 160.65 13.37 151.56 11.19C142.47 9.00997 141.77 19.19 140.5 18.9C139.23 18.61 140.6 15.57 136.92 13.12C133.24 10.67 129.75 16.91 129.75 16.91C129.75 16.91 135.51 5.43997 126.14 6.69997C116.77 7.95997 113.64 26.86 121.55 35.83C129.46 44.8 133.89 41.05 134.99 40.37C135 40.37 144.48 34.38 148.44 28.91Z" fill="#351791"/>
<path d="M144.68 61.71L139.51 49.53L145.03 60.72L149.35 58.59C149.439 58.5492 149.54 58.5452 149.632 58.5789C149.724 58.6126 149.799 58.6813 149.84 58.77C149.876 58.86 149.876 58.9601 149.84 59.05C149.825 59.0936 149.801 59.1337 149.77 59.168C149.739 59.2023 149.702 59.2302 149.66 59.25L144.68 61.71Z" fill="#1E0862"/>
<path d="M152.34 41.51C152.375 41.5396 152.403 41.5774 152.42 41.62C152.428 41.6663 152.428 41.7138 152.42 41.76C152.429 41.8096 152.429 41.8605 152.42 41.91C152.376 41.9949 152.301 42.0594 152.21 42.09C152.166 42.1099 152.118 42.1202 152.07 42.1202C152.022 42.1202 151.974 42.1099 151.93 42.09C146.48 39.52 143.84 44.81 143.73 45.09C143.709 45.1305 143.679 45.1659 143.643 45.1935C143.607 45.2212 143.565 45.2405 143.52 45.25C143.479 45.2677 143.435 45.2767 143.39 45.2767C143.345 45.2767 143.301 45.2677 143.26 45.25C143.179 45.2108 143.115 45.1432 143.08 45.06C143.045 44.9735 143.045 44.8766 143.08 44.79C143.08 44.79 146.14 38.63 152.23 41.49C152.268 41.489 152.305 41.4958 152.34 41.51Z" fill="#1E0862"/>
<path d="M136.9 49.3C136.934 49.3341 136.96 49.3748 136.977 49.4196C136.994 49.4643 137.002 49.5121 137 49.5599C136.994 49.6557 136.951 49.7453 136.88 49.8099C136.846 49.8435 136.805 49.8697 136.76 49.8869C136.716 49.9041 136.668 49.912 136.62 49.91C136.522 49.9016 136.43 49.8592 136.36 49.7899C136.27 49.6899 134.07 47.3499 131.36 49.0099C131.319 49.043 131.271 49.0669 131.22 49.0799C131.168 49.095 131.112 49.095 131.06 49.0799L130.95 48.9999C130.904 48.974 130.866 48.9359 130.84 48.8899C130.813 48.844 130.796 48.7929 130.79 48.7399C130.78 48.6871 130.78 48.6328 130.79 48.5799C130.811 48.5301 130.838 48.4831 130.87 48.4399C130.907 48.4012 130.951 48.3705 131 48.3499C134.21 46.4099 136.9 49.3 136.9 49.3Z" fill="#1E0862"/>
<path d="M155.36 61.22C155.417 61.138 155.488 61.0669 155.57 61.01C155.65 60.9501 155.742 60.909 155.84 60.89C155.936 60.87 156.034 60.87 156.13 60.89C157.8 61.25 155.77 65.62 148.96 67.89C148.863 67.9243 148.757 67.9243 148.66 67.89C148.571 67.8384 148.504 67.7569 148.47 67.66C148.435 67.5631 148.435 67.4569 148.47 67.36C148.504 67.2606 148.571 67.1759 148.66 67.12C151.03 66.12 154.77 63.98 155.27 61.5C155.281 61.4015 155.311 61.3062 155.36 61.22Z" fill="white"/>
<path d="M135.56 49.26C134.796 49.0494 133.998 48.9923 133.212 49.0919C132.426 49.1914 131.667 49.4457 130.98 49.84C130.012 50.4391 129.241 51.3081 128.76 52.34C128.282 53.3694 128.115 54.5161 128.28 55.639C128.446 56.7619 128.936 57.812 129.69 58.66C130.445 59.5065 131.43 60.1149 132.525 60.4108C133.62 60.7067 134.777 60.6773 135.856 60.3263C136.935 59.9753 137.888 59.3177 138.599 58.434C139.31 57.5503 139.748 56.4787 139.86 55.35C139.967 54.221 139.745 53.0853 139.22 52.08C138.418 50.6957 137.103 49.6827 135.56 49.26Z" fill="#351791"/>
<path d="M147.88 42.18C146.337 41.7615 144.69 41.9699 143.3 42.76C142.335 43.3598 141.567 44.2285 141.089 45.2591C140.611 46.2898 140.445 47.4377 140.611 48.5616C140.776 49.6855 141.267 50.7365 142.022 51.5854C142.777 52.4343 143.763 53.0442 144.86 53.34C145.954 53.6404 147.113 53.6091 148.19 53.25C148.997 52.9879 149.736 52.5527 150.357 51.9748C150.978 51.3969 151.465 50.6903 151.784 49.9044C152.103 49.1185 152.247 48.2723 152.205 47.4251C152.162 46.578 151.936 45.7503 151.54 45C151.147 44.3114 150.621 43.7076 149.992 43.2236C149.364 42.7395 148.646 42.3848 147.88 42.18Z" fill="#351791"/>
<g opacity="0.35">
<path opacity="0.35" d="M135.89 49.37L132.65 60.92C132.174 60.7537 131.72 60.5286 131.3 60.25L134.45 49.05C134.941 49.1008 135.424 49.2081 135.89 49.37Z" fill="#4F52FE"/>
<path opacity="0.35" d="M137.82 50.45L134.82 61.28C134.567 61.3002 134.313 61.3002 134.06 61.28L137.16 50C137.39 50.1349 137.61 50.2853 137.82 50.45Z" fill="#4F52FE"/>
</g>
<g opacity="0.69">
<path opacity="0.69" d="M148.75 42.55L145.54 54C145.073 53.8784 144.624 53.7004 144.2 53.47L147.41 42.02C147.874 42.1483 148.324 42.326 148.75 42.55Z" fill="#4F52FE"/>
<path opacity="0.69" d="M150.64 43.83L147.75 54.12C147.491 54.1449 147.229 54.1449 146.97 54.12L150.05 43.3C150.25 43.47 150.45 43.64 150.64 43.83Z" fill="#4F52FE"/>
</g>
<path d="M139.41 52.39L142.02 50.78L141.63 50.16L139.02 51.77L139.41 52.39Z" fill="#1E0862"/>
<path d="M163.62 46C161.48 46.83 160.72 46 160.4 44.72C160.3 44.34 159.3 40.53 161.98 39.72C164.66 38.91 165.75 45.16 163.62 46Z" fill="#FEB3B1"/>
<path d="M404.61 352L394.32 386.83L397.32 421.45C396.292 422.642 395.146 423.728 393.9 424.69C393.9 424.69 396.35 424.69 398.9 424.75C401.06 424.8 401.15 424.26 401.15 424.26L400.36 420.5L401.15 386.83L412.02 357.83L404.61 352Z" fill="#FEB3B1"/>
<path d="M418.41 348.14L402.07 387.44V417H396.31L393.86 386L403.02 347L418.41 348.14Z" fill="#A59BDB"/>
<path d="M409.47 390.09L412 354.72L423.22 352.64L417.22 390.09L420.22 420.96L421.27 425.25C421.27 425.25 419.62 425.47 419.03 425.47C418.44 425.47 413.22 424.82 413.22 424.82L416.81 421.69L409.47 390.09Z" fill="#FEB3B1"/>
<path d="M424.88 349.85L418.17 390.09L422.55 417H414.63L408.89 390.08L407.4 360L410.75 346.13L424.88 349.85Z" fill="#A59BDB"/>
<path d="M420.56 311.88C416.46 310.29 406.39 305.67 400.2 296.55C391.2 283.26 390.54 277.55 390.54 277.55C390.933 276.442 391.188 275.29 391.3 274.12C391.3 272.88 391.9 271.26 391.16 271.26C390.42 271.26 390.32 272.82 390.32 273.36C390.32 273.9 389.37 273.89 389.19 273.19C388.81 271.75 389.13 265.85 388.33 266.67C387.87 267.15 388.08 271.5 388.08 272.39C388.08 273.28 387.3 268.81 386.9 266.97C386.5 265.13 385.84 266.12 386.13 267.12C386.42 268.12 387.2 272.57 386.88 272.57C386.56 272.57 385.49 267.57 384.72 267.57C383.95 267.57 384.65 268.42 384.84 269.21C385.03 270 386.29 272.42 385.84 272.93C385.84 272.93 383.7 269.93 383.63 270.39C384.324 272.206 385.153 273.968 386.11 275.66C388.11 279.04 394.52 299.75 398.41 303.76C402.3 307.77 409.24 317.48 409.98 321.99C414.2 319.43 418.46 316.3 420.56 311.88Z" fill="#FEB3B1"/>
<path d="M439.18 303.22C444.82 298.52 449.25 286.99 450.18 279.87C450.215 279.591 450.215 279.309 450.18 279.03C449.73 277.8 447.91 275.03 448.68 274.11C448.709 274.07 448.747 274.037 448.79 274.013C448.833 273.989 448.881 273.974 448.93 273.97C448.981 273.961 449.032 273.962 449.082 273.974C449.132 273.986 449.179 274.009 449.22 274.04C449.49 274.24 449.42 274.51 449.61 275.14C449.8 275.77 450.23 276.39 450.36 276.23C450.66 275.87 450.19 271.23 450.46 270.02C450.61 269.41 451.09 269.25 451.2 271.17C451.2 271.75 451.2 272.36 451.2 272.92C451.2 274.25 451.4 275.1 451.49 274.76C451.75 273.76 451.72 268.56 452.49 268.44C452.87 268.38 452.49 273.96 452.49 275.32C453.15 273.86 452.98 268.74 453.67 269.45C454.09 269.89 453.79 274.32 453.55 275.32C453.27 276.54 453.9 275.32 454.22 274.69C454.54 274.06 454.86 272.01 455.29 272.96C455.72 273.91 453.29 278.96 452.85 281.05C452.43 282.87 451.39 296.84 448.44 302.87C446.26 307.32 438.79 312.93 434.36 316.76L429.44 309.58C432.918 307.832 436.189 305.699 439.19 303.22H439.18Z" fill="#FEB3B1"/>
<path d="M405.66 302.08C405.66 302.08 403.93 310.18 402.66 311.45C402.66 311.45 410.25 320.96 409.97 322.66C409.69 324.36 400.53 348.14 400.53 348.14C400.53 348.14 420.79 354.14 426.83 351.14C426.83 351.14 430.11 320.87 431.76 319.14C433.41 317.41 438.52 314.73 438.52 314.73C438.52 314.73 434.7 307.14 434.7 305.8C434.7 305.8 426.82 309.87 424.81 310.71C417.53 313.8 406.75 302.77 405.66 302.08Z" fill="#351791"/>
<path d="M400.56 348.14C400.56 348.14 411.11 324.49 410.75 322C410.39 319.51 402.75 311.45 402.75 311.45C402.75 311.45 410.34 320.96 410.05 322.66C409.76 324.36 400.56 348.14 400.56 348.14Z" fill="#1E0862"/>
<path d="M417.31 420.77C417.74 421.44 418.17 423.08 417.31 423.97C416.45 424.86 414.09 425.09 414.09 425.09L412.49 424.99C413.515 424.42 414.424 423.664 415.17 422.76C415.39 422.43 415.17 421.83 415.17 421.58C415.17 420.49 416.82 420 417.31 420.77Z" fill="#FDE6E3"/>
<path d="M420.92 421.58L421.68 426.58L417.31 427.2L411.39 426.92L411.25 425.83L414.76 423.23C415.186 423.612 415.711 423.868 416.274 423.968C416.837 424.069 417.418 424.011 417.95 423.8C419.192 423.477 420.258 422.68 420.92 421.58Z" fill="#D7D1E9"/>
<path d="M420.27 420.49C420.53 420.33 421.39 420.29 421.39 420.97C421.085 421.904 420.512 422.727 419.742 423.337C418.972 423.947 418.039 424.317 417.06 424.4C414.52 424.4 414.2 423.6 414.61 423.26C415.02 422.92 417.05 423.4 417.67 423.16C418.29 422.92 419.47 421 420.27 420.49Z" fill="#A59BDB"/>
<path d="M417.31 426.34C418.16 426.34 420.52 425.08 421.61 424.52L421.68 426.61L417.31 427.23L411.01 426.94L411.24 425.87C412.58 426 416.37 426.34 417.31 426.34Z" fill="#D7D1E9"/>
<path d="M417 423.23L416.59 425.53L412.49 424.94L415.17 422.76L417 423.23Z" fill="#D7D1E9"/>
<path d="M416.59 423.82C416.646 423.82 416.699 423.798 416.74 423.76C416.782 423.72 416.81 423.667 416.82 423.61C416.84 423.555 416.84 423.495 416.82 423.44C416.803 423.412 416.78 423.388 416.752 423.371C416.724 423.354 416.693 423.343 416.66 423.34L414.99 423.05H414.89C414.89 423.05 414.84 423.05 414.81 423.05L414.75 423.11C414.741 423.139 414.741 423.171 414.75 423.2C414.738 423.229 414.732 423.259 414.732 423.29C414.732 423.321 414.738 423.352 414.75 423.38C414.767 423.406 414.789 423.428 414.815 423.445C414.841 423.463 414.87 423.474 414.9 423.48L416.58 423.77L416.59 423.82Z" fill="#A59BDB"/>
<path d="M416 425C416.028 425.001 416.056 424.996 416.081 424.986C416.107 424.975 416.131 424.96 416.15 424.94C416.193 424.904 416.221 424.855 416.23 424.8C416.24 424.771 416.24 424.739 416.23 424.71C416.242 424.681 416.242 424.649 416.23 424.62C416.212 424.592 416.188 424.568 416.16 424.55C416.134 424.545 416.106 424.545 416.08 424.55L413.81 424.11H413.72C413.694 424.1 413.666 424.1 413.64 424.11C413.612 424.128 413.588 424.152 413.57 424.18C413.561 424.209 413.561 424.241 413.57 424.27C413.56 424.299 413.56 424.331 413.57 424.36C413.561 424.389 413.561 424.421 413.57 424.45C413.57 424.45 413.57 424.5 413.64 424.51H413.73L415.99 424.95L416 425Z" fill="#A59BDB"/>
<path d="M397.43 419.79C397.86 420.47 398.3 422.12 397.43 423.02C396.56 423.92 394.19 424.15 394.19 424.15L392.57 424.04C393.606 423.47 394.525 422.71 395.28 421.8C395.5 421.46 395.28 420.86 395.28 420.61C395.28 419.51 396.94 419 397.43 419.79Z" fill="#FDE6E3"/>
<path d="M401.07 420.61L401.84 425.68L397.43 426.3L391.43 426.02L391.29 424.92L394.82 422.29C395.249 422.678 395.777 422.939 396.346 423.043C396.915 423.147 397.502 423.091 398.04 422.88C398.67 422.721 399.262 422.438 399.783 422.049C400.303 421.659 400.74 421.17 401.07 420.61Z" fill="#D7D1E9"/>
<path d="M400.41 419.51C400.68 419.35 401.54 419.3 401.54 419.99C401.231 420.93 400.653 421.758 399.878 422.373C399.104 422.988 398.165 423.363 397.18 423.45C394.62 423.45 394.29 422.64 394.7 422.3C395.11 421.96 397.17 422.44 397.79 422.21C398.41 421.98 399.61 420 400.41 419.51Z" fill="#A59BDB"/>
<path d="M397.43 425.41C398.28 425.41 400.67 424.14 401.77 423.57L401.94 426.09L397.43 426.3L391.08 426.19L391.32 424.92C392.67 425.05 396.48 425.41 397.43 425.41Z" fill="#D7D1E9"/>
<path d="M397.12 422.28L396.7 424.59L392.57 423.99L395.28 421.8L397.12 422.28Z" fill="#D7D1E9"/>
<path d="M396.75 422.86C396.807 422.861 396.863 422.841 396.907 422.804C396.951 422.768 396.98 422.717 396.99 422.66C396.995 422.627 396.995 422.593 396.99 422.56C396.999 422.531 396.999 422.499 396.99 422.47L396.92 422.41H396.83L395.14 422.13H395.05H394.96C394.96 422.13 394.91 422.13 394.9 422.2C394.891 422.229 394.891 422.261 394.9 422.29C394.89 422.319 394.89 422.351 394.9 422.38C394.893 422.41 394.893 422.44 394.9 422.47C394.9 422.47 394.9 422.47 394.96 422.54H395.05L396.74 422.83L396.75 422.86Z" fill="#A59BDB"/>
<path d="M396.11 424C396.138 424.001 396.166 423.996 396.191 423.986C396.217 423.976 396.241 423.96 396.26 423.94C396.285 423.926 396.305 423.905 396.319 423.881C396.333 423.856 396.34 423.828 396.34 423.8C396.352 423.772 396.358 423.741 396.358 423.71C396.358 423.679 396.352 423.649 396.34 423.62C396.304 423.569 396.251 423.534 396.19 423.52L393.9 423.07H393.75H393.66C393.66 423.07 393.61 423.07 393.6 423.14C393.59 423.169 393.59 423.201 393.6 423.23C393.595 423.26 393.595 423.29 393.6 423.32C393.596 423.35 393.596 423.38 393.6 423.41C393.6 423.41 393.6 423.46 393.67 423.47H393.75L396.04 423.92L396.11 424Z" fill="#A59BDB"/>
<path d="M423.27 306.68C423.44 306.56 425.4 301.03 425.4 301.03C425.4 301.03 426.7 296.89 425.82 296.23C424.94 295.57 422.82 293.23 420.99 293.23C419.874 293.212 418.772 293.481 417.79 294.01C417.63 294.13 416.47 296.32 416.47 296.32C416.47 296.32 417.01 295.58 417.33 298.25C417.65 300.92 423.27 306.68 423.27 306.68Z" fill="#4F52FE"/>
<path d="M418.66 306.61C418.89 307.3 416.17 311.61 417.66 312.78C418.12 313.17 424.52 316.46 424.57 311.96C424.62 307.46 424.14 302.19 424.14 302.19L418.66 306.61Z" fill="url(#paint15_linear_217_858)"/>
<path d="M424.34 305.42C423.51 308.51 419.85 312.02 417.34 310.69C417.72 309.04 418.83 307.06 418.68 306.61L424.12 302.19C424.11 302.25 424.22 303.5 424.34 305.42Z" fill="url(#paint16_linear_217_858)"/>
<path d="M424.25 298.06C424.664 299.312 424.807 300.638 424.671 301.95C424.535 303.261 424.122 304.529 423.46 305.67C421.89 308.21 419.7 309.58 418.1 308.38C416.5 307.18 415.96 299.38 417.1 297.27C418.24 295.16 423.2 295.37 424.25 298.06Z" fill="#FEB3B1"/>
<path d="M424.35 305.62C424.35 305.62 424.67 303.03 425.58 302.37C426.49 301.71 426.9 301.31 427.05 300.37C427.2 299.43 430.26 298.73 429.74 297.26C429.22 295.79 426.82 295.17 425.57 292.62C424.32 290.07 422.98 288.68 420.16 289.73C417.34 290.78 416.96 292.66 416.96 292.66C416.96 292.66 415.7 292.48 414.96 294.12C414.671 294.632 414.546 295.22 414.604 295.806C414.661 296.391 414.897 296.944 415.28 297.39C415.28 297.39 415.14 295.27 415.82 295.39C416.5 295.51 415.82 297.88 415.82 297.88C416.576 297.151 417.272 296.362 417.9 295.52C418.96 294.09 418.72 295.72 418.42 297.52C418.12 299.32 420.51 297.52 421.56 296.23C422.61 294.94 424.16 296.05 424.75 297.83C425.34 299.61 422.99 302.55 424.35 305.62Z" fill="#4F52FE"/>
<path d="M423.75 300.91C423.75 300.91 424.75 299.03 425.25 299.81C425.75 300.59 425.39 303 424.25 303.07C423.11 303.14 423.75 300.91 423.75 300.91Z" fill="#FEB3B1"/>
<path d="M424.33 301C424.33 301 424.28 299.94 424.82 300.27C425.36 300.6 424.82 302.34 424.35 302.27C423.88 302.2 424.33 301 424.33 301Z" fill="url(#paint17_linear_217_858)"/>
<path d="M418.65 300.74C418.468 301.238 418.341 301.755 418.27 302.28C418.158 302.834 418.158 303.406 418.27 303.96C418.39 303.96 418.71 303.87 419.14 303.73C418.867 303.715 418.593 303.715 418.32 303.73L418.41 303.8C418.418 302.776 418.498 301.753 418.65 300.74Z" fill="#1E0862"/>
<path d="M420.01 301C419.96 301.33 420.09 301.62 420.31 301.66C420.53 301.7 420.75 301.47 420.8 301.15C420.85 300.83 420.72 300.53 420.5 300.49C420.28 300.45 420.06 300.64 420.01 301Z" fill="#4F52FE"/>
<path d="M417.01 300.62C416.95 300.94 417.09 301.23 417.31 301.27C417.53 301.31 417.74 301.08 417.8 300.76C417.86 300.44 417.72 300.15 417.5 300.11C417.28 300.07 417.06 300.3 417.01 300.62Z" fill="#4F52FE"/>
<path d="M421.75 300.09C421.62 299.85 421.443 299.638 421.23 299.466C421.017 299.294 420.773 299.167 420.51 299.09C419.75 298.95 419.98 299.64 420.16 299.67C420.34 299.7 421.75 299.92 421.75 300.09Z" fill="#1E0862"/>
<path d="M418.03 298.79C418.03 298.79 417.12 299.11 416.96 299.57C416.96 299.57 417.96 299.45 418.09 299.2C418.113 299.166 418.129 299.129 418.14 299.09C418.145 299.054 418.145 299.017 418.14 298.98C418.144 298.943 418.144 298.907 418.14 298.87C418.119 298.839 418.091 298.811 418.06 298.79H418.03Z" fill="#1E0862"/>
<path d="M418.22 305.32L418.49 306.91C419.338 306.312 420.135 305.643 420.87 304.91L418.22 305.32Z" fill="white"/>
<path d="M325.75 462.44C326.55 463.56 326.39 464.07 326.25 464.3C325.82 464.99 324.6 464.44 321.58 464.94C320.977 465.054 320.359 465.074 319.75 465C319.01 464.89 318.12 464.62 318.12 464.45C318.12 464.28 318.27 464.35 318.31 464.34C319.14 464.13 324.31 462.39 324.31 462.39L325.75 462.44Z" fill="#351791"/>
<path d="M325.94 459.87L325.75 462.5C325.75 462.5 324.53 463.36 324.11 462.45C323.861 461.626 323.7 460.778 323.63 459.92L325.94 459.87Z" fill="url(#paint18_linear_217_858)"/>
<path d="M311.49 461.32L313.1 464.2L314.92 463.81L314.19 461.08L311.49 461.32Z" fill="url(#paint19_linear_217_858)"/>
<path d="M314.19 466.12C315.03 465.12 315.81 465.19 315.87 464.55C315.899 464.281 315.828 464.01 315.67 463.79C315.501 463.554 315.269 463.37 315 463.26C314.67 463.192 314.33 463.192 314 463.26C313.69 463.327 313.399 463.464 313.15 463.66C311.83 464.52 312.32 465.71 311.06 466.31C310.668 466.458 310.305 466.674 309.99 466.95C309.82 467.12 309.39 467.51 309.53 467.76C309.67 468.01 310.53 468 311.29 467.93C311.924 467.96 312.557 467.833 313.13 467.56C313.75 467.21 313.56 466.87 314.19 466.12Z" fill="#351791"/>
<path d="M329.49 391.13C329.62 396.814 329.285 402.5 328.49 408.13C327.78 413.13 327.28 414.04 327.14 417.49C326.85 424.99 329.05 425.92 329.83 434.31C330.401 440.928 329.812 447.595 328.09 454.01C327.573 456.044 326.942 458.047 326.2 460.01C325.49 460.81 324.29 460.6 323.04 460.4C322.21 451.99 321.27 444.08 320.43 435.67C318.37 423.057 316.317 410.46 314.27 397.88L329.49 391.13Z" fill="#351791"/>
<path d="M320.21 396.78C317.38 402.12 309.52 422.78 310.32 427.57C312.57 441.06 316.74 455.47 314.89 461.12L311.89 462.43C308.262 453.803 305.359 444.889 303.21 435.78C302.38 432.32 301.67 429.27 301.14 426.17C300.73 423.77 301.36 398.57 304.94 389.17L320.21 396.78Z" fill="#351791"/>
<path d="M307.65 346.82C301.8 348.49 302.49 351.12 300.65 355.06C298.7 359.21 300.05 359.98 301.32 368.69C311.59 386.69 297.15 387.51 299.5 400.92C300.104 404.378 301.164 407.74 302.65 410.92C305.355 413.376 308.514 415.278 311.95 416.52C318.04 418.65 320.65 415.04 328.72 415.01C332.44 415.01 337.82 415.23 339.85 412.94C340.27 412.46 330.9 389.7 327.85 386.83C323.23 382.5 323.73 370.5 325.37 363.54C326.45 359 326.27 354.18 327.02 349.54C327.112 348.981 327.068 348.408 326.89 347.87C326.05 345.29 322.1 345.08 319.14 344.96C316.18 344.84 310.44 346.08 307.65 346.82Z" fill="#FB6B4B"/>
<path d="M307.54 331.14C307.54 331.14 305.44 335.61 305.49 338.66C305.54 341.71 308.93 341.3 308.93 341.3L308.88 343.3C308.869 344.105 308.626 344.889 308.181 345.559C307.736 346.229 307.107 346.757 306.37 347.08L305.04 347.65C305.04 347.65 313.99 349.06 318.62 345.38H317.22C316.26 345.34 315.343 344.969 314.626 344.329C313.91 343.689 313.437 342.82 313.29 341.87L313.16 341.05C313.16 341.05 314.2 331.35 307.54 331.14Z" fill="#FEB3B1"/>
<path d="M273.75 348.7L276.75 357.92L276.89 358.32L277.82 361.16C277.855 361.267 277.931 361.357 278.03 361.41C278.129 361.469 278.246 361.49 278.36 361.47L279.2 361.3C279.311 361.28 279.411 361.219 279.48 361.13C279.546 361.037 279.577 360.924 279.57 360.81L279.35 357.81V357.4L278.62 347.73C278.635 347.644 278.635 347.556 278.62 347.47C278.541 347.222 278.374 347.012 278.15 346.88L278.03 346.81L276.03 347.36L274.03 347.61L273.95 347.7C273.792 347.913 273.717 348.176 273.74 348.44C273.722 348.526 273.725 348.616 273.75 348.7Z" fill="#351791"/>
<path d="M279.11 344.16C279.17 343.441 279.015 342.72 278.667 342.088C278.318 341.456 277.79 340.942 277.149 340.609C276.509 340.276 275.784 340.14 275.067 340.218C274.349 340.297 273.671 340.585 273.117 341.048C272.563 341.51 272.158 342.126 271.953 342.818C271.748 343.511 271.753 344.248 271.966 344.937C272.179 345.627 272.591 346.238 273.15 346.694C273.71 347.15 274.392 347.43 275.11 347.5C275.593 347.547 276.08 347.497 276.543 347.354C277.006 347.211 277.436 346.977 277.808 346.666C278.181 346.356 278.487 345.974 278.711 345.544C278.934 345.114 279.07 344.643 279.11 344.16Z" fill="#4F52FE"/>
<path d="M271.41 344.46C271.451 344.577 271.533 344.677 271.64 344.74C271.749 344.801 271.878 344.819 272 344.79C274.402 344.453 276.782 343.979 279.13 343.37C279.192 343.361 279.251 343.34 279.305 343.307C279.358 343.274 279.404 343.231 279.44 343.18C279.52 343.086 279.56 342.963 279.55 342.84C279.512 342.721 279.43 342.62 279.32 342.56C279.214 342.498 279.089 342.48 278.97 342.51C276.564 342.843 274.18 343.318 271.83 343.93C271.706 343.947 271.594 344.013 271.517 344.112C271.441 344.211 271.406 344.336 271.42 344.46H271.41Z" fill="#4F52FE"/>
<path d="M273.07 346.88C273.092 346.852 273.119 346.828 273.15 346.81H273.26C275.097 346.963 276.939 346.577 278.56 345.7H278.68C278.715 345.686 278.755 345.686 278.79 345.7C278.821 345.719 278.845 345.747 278.86 345.78C278.87 345.816 278.87 345.854 278.86 345.89L278.69 346.53C278.663 346.639 278.608 346.739 278.53 346.82C278.454 346.901 278.362 346.965 278.26 347.01C276.877 347.671 275.35 347.97 273.82 347.88C273.716 347.867 273.616 347.83 273.53 347.77C273.443 347.715 273.371 347.639 273.32 347.55L273.05 347.09C273.041 347.057 273.041 347.023 273.05 346.99C273.045 346.952 273.052 346.914 273.07 346.88Z" fill="#4F52FE"/>
<path d="M276.75 352.58C276.775 352.695 276.843 352.795 276.94 352.86C276.989 352.894 277.045 352.917 277.103 352.929C277.161 352.941 277.222 352.941 277.28 352.93C277.396 352.903 277.497 352.831 277.56 352.73C277.594 352.681 277.617 352.625 277.629 352.567C277.641 352.509 277.641 352.449 277.63 352.39L277.31 350.81C277.301 350.751 277.279 350.695 277.246 350.644C277.214 350.594 277.17 350.552 277.12 350.52C277.072 350.484 277.017 350.459 276.958 350.447C276.899 350.435 276.838 350.436 276.78 350.45C276.722 350.459 276.667 350.481 276.619 350.514C276.571 350.547 276.53 350.59 276.5 350.64C276.466 350.689 276.443 350.745 276.431 350.803C276.419 350.861 276.419 350.922 276.43 350.98L276.75 352.58Z" fill="#4F52FE"/>
<path d="M278.75 356.36L278.22 348.36L278.75 356.36Z" fill="white"/>
<path d="M279.75 360C279.75 360 275.68 357.67 275.08 355.85C274.651 354.107 274.4 352.324 274.33 350.53L276.96 355.27C277.344 355.068 277.674 354.776 277.921 354.419C278.168 354.062 278.326 353.651 278.38 353.22C278.72 351.56 279.61 352.98 279.38 354.22C279.348 356.154 279.471 358.086 279.75 360Z" fill="#FEB3B1"/>
<path d="M309.16 335.39C309.61 335.32 309.96 334.72 310.28 334.87C310.6 335.02 310.64 335.87 310.38 336.49C310.233 336.901 309.955 337.252 309.59 337.49C310.118 338.13 310.501 338.877 310.71 339.68C311.24 341.86 310.17 343.68 309.71 344.75C307.78 349.54 311.59 356.75 315.53 360.23C318.73 363.1 320.08 361.8 322.03 364.17C325.85 368.79 321.24 374.34 323.43 380.71C326.75 390.41 342.43 392.47 343.1 392.55L343.79 392.63C350.79 393.36 361.52 394.46 368.61 388.32C373.94 383.74 376.09 376.14 375.3 369.6C374.729 364.504 372.344 359.783 368.58 356.3C367.68 355.5 362.39 350.75 355.58 351.07C351.98 351.24 351.33 352.54 348.58 351.86C344.76 351.01 342.25 347.74 340.7 345.72C337.84 341.96 338.85 341.07 336.87 339.26C332.94 335.7 328.72 338.89 324.56 335.8C320.4 332.71 322.56 328.17 318.64 325.55C314.72 322.93 307.15 324.24 305.73 327.83C304.57 330.82 307.75 335.58 309.16 335.39Z" fill="#4F52FE"/>
<path d="M307.75 335.31C307.87 335.341 307.978 335.405 308.063 335.496C308.147 335.586 308.204 335.698 308.227 335.82C308.25 335.942 308.237 336.067 308.191 336.182C308.145 336.297 308.067 336.396 307.967 336.468C307.866 336.54 307.747 336.582 307.623 336.589C307.5 336.595 307.377 336.567 307.269 336.506C307.161 336.445 307.073 336.355 307.015 336.246C306.957 336.137 306.931 336.013 306.94 335.89C306.972 335.706 307.075 335.543 307.226 335.434C307.378 335.326 307.566 335.281 307.75 335.31Z" fill="url(#paint20_linear_217_858)"/>
<path d="M307.06 333.82L305.49 335.24L306.49 335.85L307.06 333.82Z" fill="#FEB3B1"/>
<path d="M292.01 369C287.91 371.68 279.15 356.63 279.15 356.63L276.75 357.7C276.75 357.7 284.08 375.94 291.19 376.56C298.3 377.18 308 356.75 308.1 353.1C308.2 349.45 307 349.48 307 349.48C300.42 349.3 296.1 366.29 292.01 369Z" fill="#FEB3B1"/>
</g>
<defs>
<linearGradient id="paint0_linear_217_858" x1="175478" y1="-95484.7" x2="179535" y2="-90301.8" gradientUnits="userSpaceOnUse">
<stop stop-color="#FF928E"/>
<stop offset="1" stop-color="#FEB3B1"/>
</linearGradient>
<linearGradient id="paint1_linear_217_858" x1="116927" y1="-42727.8" x2="118468" y2="-39802.5" gradientUnits="userSpaceOnUse">
<stop stop-color="#FF928E"/>
<stop offset="1" stop-color="#FEB3B1"/>
</linearGradient>
<linearGradient id="paint2_linear_217_858" x1="19570" y1="-12948.1" x2="20138.8" y2="-12355.4" gradientUnits="userSpaceOnUse">
<stop stop-color="#FF928E"/>
<stop offset="1" stop-color="#FEB3B1"/>
</linearGradient>
<linearGradient id="paint3_linear_217_858" x1="76343.1" y1="-41622.8" x2="78111.9" y2="-39368.2" gradientUnits="userSpaceOnUse">
<stop stop-color="#FF928E"/>
<stop offset="1" stop-color="#FEB3B1"/>
</linearGradient>
<linearGradient id="paint4_linear_217_858" x1="14110" y1="-7355.58" x2="14423.8" y2="-6943.99" gradientUnits="userSpaceOnUse">
<stop stop-color="#FF928E"/>
<stop offset="1" stop-color="#FEB3B1"/>
</linearGradient>
<linearGradient id="paint5_linear_217_858" x1="13895.2" y1="-8457.54" x2="14265.8" y2="-8040.05" gradientUnits="userSpaceOnUse">
<stop stop-color="#FF928E"/>
<stop offset="1" stop-color="#FEB3B1"/>
</linearGradient>
<linearGradient id="paint6_linear_217_858" x1="3163.14" y1="-7318.74" x2="3336.74" y2="-7267.49" gradientUnits="userSpaceOnUse">
<stop stop-color="#FF928E"/>
<stop offset="1" stop-color="#FEB3B1"/>
</linearGradient>
<linearGradient id="paint7_linear_217_858" x1="5032.26" y1="-2764.8" x2="5150.63" y2="-2617.11" gradientUnits="userSpaceOnUse">
<stop stop-color="#FF928E"/>
<stop offset="1" stop-color="#FEB3B1"/>
</linearGradient>
<linearGradient id="paint8_linear_217_858" x1="3236.93" y1="-7310.91" x2="3413.48" y2="-7257.63" gradientUnits="userSpaceOnUse">
<stop stop-color="#FF928E"/>
<stop offset="1" stop-color="#FEB3B1"/>
</linearGradient>
<linearGradient id="paint9_linear_217_858" x1="5035.08" y1="-2767.31" x2="5153.48" y2="-2619.79" gradientUnits="userSpaceOnUse">
<stop stop-color="#FF928E"/>
<stop offset="1" stop-color="#FEB3B1"/>
</linearGradient>
<linearGradient id="paint10_linear_217_858" x1="11699" y1="-4276.33" x2="11853" y2="-3984.13" gradientUnits="userSpaceOnUse">
<stop stop-color="#FF928E"/>
<stop offset="1" stop-color="#FEB3B1"/>
</linearGradient>
<linearGradient id="paint11_linear_217_858" x1="17010.8" y1="-5656.99" x2="17222.4" y2="-5242.01" gradientUnits="userSpaceOnUse">
<stop stop-color="#FF928E"/>
<stop offset="1" stop-color="#FEB3B1"/>
</linearGradient>
<linearGradient id="paint12_linear_217_858" x1="1488.5" y1="-1003.92" x2="1542.2" y2="-965.226" gradientUnits="userSpaceOnUse">
<stop stop-color="#FF928E"/>
<stop offset="1" stop-color="#FEB3B1"/>
</linearGradient>
<linearGradient id="paint13_linear_217_858" x1="3475.01" y1="-4948.58" x2="3644.36" y2="-4873.69" gradientUnits="userSpaceOnUse">
<stop stop-color="#FF928E"/>
<stop offset="1" stop-color="#FEB3B1"/>
</linearGradient>
<linearGradient id="paint14_linear_217_858" x1="14135.9" y1="-17379.6" x2="14784.2" y2="-17017.1" gradientUnits="userSpaceOnUse">
<stop stop-color="#FF928E"/>
<stop offset="1" stop-color="#FEB3B1"/>
</linearGradient>
<linearGradient id="paint15_linear_217_858" x1="8290.25" y1="-6901.38" x2="8593.47" y2="-6670.28" gradientUnits="userSpaceOnUse">
<stop stop-color="#FF928E"/>
<stop offset="1" stop-color="#FEB3B1"/>
</linearGradient>
<linearGradient id="paint16_linear_217_858" x1="7903.21" y1="-4924.05" x2="8131.36" y2="-4696.16" gradientUnits="userSpaceOnUse">
<stop stop-color="#FF928E"/>
<stop offset="1" stop-color="#FEB3B1"/>
</linearGradient>
<linearGradient id="paint17_linear_217_858" x1="1396.96" y1="-928.073" x2="1442.35" y2="-903.005" gradientUnits="userSpaceOnUse">
<stop stop-color="#FF928E"/>
<stop offset="1" stop-color="#FEB3B1"/>
</linearGradient>
<linearGradient id="paint18_linear_217_858" x1="2793.95" y1="-1322.64" x2="2871.72" y2="-1247.48" gradientUnits="userSpaceOnUse">
<stop stop-color="#FF928E"/>
<stop offset="1" stop-color="#FEB3B1"/>
</linearGradient>
<linearGradient id="paint19_linear_217_858" x1="3979.58" y1="-1394.08" x2="4056.55" y2="-1287.94" gradientUnits="userSpaceOnUse">
<stop stop-color="#FF928E"/>
<stop offset="1" stop-color="#FEB3B1"/>
</linearGradient>
<linearGradient id="paint20_linear_217_858" x1="1697.17" y1="-430.64" x2="1729.7" y2="-389.466" gradientUnits="userSpaceOnUse">
<stop stop-color="#FF928E"/>
<stop offset="1" stop-color="#FEB3B1"/>
</linearGradient>
<clipPath id="clip0_217_858">
<rect width="516.67" height="467.99" fill="white"/>
</clipPath>
</defs>
</svg>
